<svg xmlns="http://www.w3.org/2000/svg" xmlns:xlink="http://www.w3.org/1999/xlink" width="500" zoomAndPan="magnify" viewBox="0 0 375 374.999991" height="500" preserveAspectRatio="xMidYMid meet" version="1.0"><defs><clipPath id="id1"><path d="M 33 87.625 L 341 87.625 L 341 192 L 33 192 Z M 33 87.625 " clip-rule="nonzero"/></clipPath><clipPath id="id2"><path d="M 20 211 L 355 211 L 355 287.125 L 20 287.125 Z M 20 211 " clip-rule="nonzero"/></clipPath></defs><g clip-path="url(#id1)"><path fill="rgb(14.509583%, 18.429565%, 24.308777%)" d="M 114.171875 160.066406 C 114.171875 164.171875 114.617188 167.5 115.394531 169.941406 C 116.285156 172.382812 117.394531 175.046875 118.949219 177.929688 C 119.507812 178.820312 119.726562 179.707031 119.726562 180.484375 C 119.726562 181.59375 119.0625 182.703125 117.617188 183.8125 L 110.617188 188.472656 C 109.617188 189.140625 108.617188 189.472656 107.726562 189.472656 C 106.617188 189.472656 105.503906 188.917969 104.394531 187.917969 C 102.839844 186.253906 101.503906 184.476562 100.394531 182.703125 C 99.28125 180.816406 98.171875 178.707031 96.949219 176.15625 C 88.28125 186.363281 77.390625 191.46875 64.277344 191.46875 C 54.941406 191.46875 47.496094 188.804688 42.050781 183.480469 C 36.605469 178.152344 33.828125 171.050781 33.828125 162.175781 C 33.828125 152.742188 37.164062 145.085938 43.941406 139.316406 C 50.71875 133.546875 59.722656 130.660156 71.167969 130.660156 C 74.945312 130.660156 78.835938 130.992188 82.945312 131.546875 C 87.058594 132.101562 91.28125 132.988281 95.726562 133.988281 L 95.726562 125.886719 C 95.726562 117.453125 93.949219 111.574219 90.503906 108.132812 C 86.945312 104.695312 80.945312 103.03125 72.390625 103.03125 C 68.5 103.03125 64.5 103.472656 60.386719 104.472656 C 56.277344 105.46875 52.273438 106.691406 48.386719 108.246094 C 46.609375 109.019531 45.273438 109.464844 44.496094 109.6875 C 43.71875 109.910156 43.164062 110.019531 42.71875 110.019531 C 41.164062 110.019531 40.386719 108.910156 40.386719 106.578125 L 40.386719 101.140625 C 40.386719 99.367188 40.605469 98.035156 41.164062 97.257812 C 41.71875 96.480469 42.71875 95.707031 44.273438 94.929688 C 48.164062 92.929688 52.832031 91.265625 58.277344 89.933594 C 63.722656 88.492188 69.5 87.828125 75.609375 87.828125 C 88.835938 87.828125 98.503906 90.824219 104.726562 96.816406 C 110.839844 102.808594 113.949219 111.90625 113.949219 124.113281 L 113.949219 160.066406 Z M 69.054688 176.933594 C 72.722656 176.933594 76.5 176.265625 80.5 174.933594 C 84.503906 173.601562 88.058594 171.160156 91.058594 167.832031 C 92.835938 165.726562 94.171875 163.394531 94.835938 160.730469 C 95.503906 158.070312 95.949219 154.851562 95.949219 151.078125 L 95.949219 146.417969 C 92.726562 145.640625 89.28125 144.972656 85.722656 144.53125 C 82.167969 144.085938 78.722656 143.863281 75.277344 143.863281 C 67.832031 143.863281 62.386719 145.308594 58.722656 148.304688 C 55.054688 151.300781 53.277344 155.515625 53.277344 161.0625 C 53.277344 166.277344 54.609375 170.164062 57.386719 172.828125 C 60.054688 175.601562 63.945312 176.933594 69.054688 176.933594 Z M 158.296875 188.917969 C 156.289062 188.917969 154.953125 188.585938 154.0625 187.808594 C 153.183594 187.140625 152.398438 185.585938 151.726562 183.480469 L 125.617188 97.703125 C 124.953125 95.484375 124.617188 94.039062 124.617188 93.265625 C 124.617188 91.488281 125.507812 90.488281 127.285156 90.488281 L 138.175781 90.488281 C 140.289062 90.488281 141.734375 90.824219 142.511719 91.597656 C 143.398438 92.265625 144.066406 93.820312 144.730469 95.925781 L 163.394531 169.386719 L 180.738281 95.925781 C 181.289062 93.707031 181.957031 92.265625 182.851562 91.601562 C 183.742188 90.933594 185.289062 90.492188 187.292969 90.492188 L 196.183594 90.492188 C 198.292969 90.492188 199.734375 90.824219 200.625 91.601562 C 201.519531 92.265625 202.292969 93.820312 202.738281 95.929688 L 220.304688 170.277344 L 239.523438 95.929688 C 240.191406 93.707031 240.964844 92.265625 241.75 91.601562 C 242.628906 90.933594 244.085938 90.492188 246.078125 90.492188 L 256.421875 90.492188 C 258.191406 90.492188 259.1875 91.378906 259.1875 93.265625 C 259.1875 93.820312 259.082031 94.375 258.976562 95.039062 C 258.859375 95.707031 258.636719 96.59375 258.191406 97.816406 L 231.40625 183.59375 C 230.738281 185.8125 229.964844 187.253906 229.074219 187.917969 C 228.183594 188.585938 226.742188 189.03125 224.851562 189.03125 L 215.296875 189.03125 C 213.183594 189.03125 211.742188 188.695312 210.851562 187.917969 C 209.960938 187.144531 209.1875 185.699219 208.742188 183.480469 L 191.515625 111.90625 L 174.40625 183.371094 C 173.84375 185.589844 173.175781 187.03125 172.296875 187.808594 C 171.40625 188.585938 169.84375 188.917969 167.851562 188.917969 Z M 301.082031 191.914062 C 295.300781 191.914062 289.535156 191.246094 283.976562 189.914062 C 278.417969 188.585938 274.078125 187.140625 271.195312 185.476562 C 269.410156 184.476562 268.191406 183.367188 267.746094 182.371094 C 267.300781 181.371094 267.078125 180.261719 267.078125 179.261719 L 267.078125 173.601562 C 267.078125 171.273438 267.96875 170.164062 269.632812 170.164062 C 270.304688 170.164062 270.972656 170.273438 271.640625 170.496094 C 272.308594 170.71875 273.304688 171.160156 274.417969 171.605469 C 278.195312 173.269531 282.3125 174.601562 286.636719 175.488281 C 291.082031 176.378906 295.421875 176.820312 299.863281 176.820312 C 306.863281 176.820312 312.304688 175.601562 316.09375 173.160156 C 319.871094 170.71875 321.863281 167.167969 321.863281 162.617188 C 321.863281 159.511719 320.867188 156.957031 318.875 154.851562 C 316.867188 152.742188 313.09375 150.855469 307.636719 149.078125 L 291.527344 144.085938 C 283.414062 141.535156 277.421875 137.761719 273.75 132.765625 C 270.078125 127.886719 268.191406 122.449219 268.191406 116.679688 C 268.191406 112.019531 269.1875 107.910156 271.195312 104.359375 C 273.199219 100.808594 275.859375 97.703125 279.191406 95.261719 C 282.535156 92.710938 286.308594 90.824219 290.753906 89.492188 C 295.199219 88.160156 299.863281 87.605469 304.753906 87.605469 C 307.191406 87.605469 309.75 87.714844 312.199219 88.046875 C 314.757812 88.382812 317.089844 88.824219 319.421875 89.269531 C 321.640625 89.824219 323.75 90.378906 325.753906 91.042969 C 327.761719 91.710938 329.308594 92.375 330.421875 93.042969 C 331.984375 93.929688 333.097656 94.816406 333.753906 95.816406 C 334.421875 96.703125 334.761719 97.925781 334.761719 99.476562 L 334.761719 104.695312 C 334.761719 107.023438 333.871094 108.246094 332.207031 108.246094 C 331.3125 108.246094 329.871094 107.800781 327.984375 106.914062 C 321.640625 104.027344 314.535156 102.585938 306.640625 102.585938 C 300.308594 102.585938 295.300781 103.582031 291.867188 105.691406 C 288.421875 107.800781 286.636719 111.019531 286.636719 115.566406 C 286.636719 118.675781 287.75 121.339844 289.980469 123.445312 C 292.195312 125.554688 296.3125 127.664062 302.199219 129.550781 L 317.980469 134.542969 C 325.976562 137.09375 331.757812 140.648438 335.207031 145.195312 C 338.640625 149.746094 340.320312 154.960938 340.320312 160.730469 C 340.320312 165.503906 339.3125 169.832031 337.421875 173.601562 C 335.429688 177.375 332.757812 180.707031 329.308594 183.367188 C 325.875 186.144531 321.757812 188.140625 316.972656 189.582031 C 311.976562 191.136719 306.761719 191.914062 301.082031 191.914062 Z M 301.082031 191.914062 " fill-opacity="1" fill-rule="nonzero"/></g><g clip-path="url(#id2)"><path fill="rgb(100%, 59.999084%, 0%)" d="M 322.085938 245.835938 C 285.523438 272.804688 232.417969 287.125 186.742188 287.125 C 122.730469 287.125 65.054688 263.484375 21.5 224.199219 C 18.046875 221.097656 21.160156 216.878906 25.273438 219.316406 C 72.390625 246.621094 130.507812 263.15625 190.621094 263.15625 C 231.179688 263.15625 275.753906 254.726562 316.746094 237.40625 C 322.867188 234.632812 328.085938 241.398438 322.082031 245.835938 Z M 337.316406 228.53125 C 332.652344 222.535156 306.417969 225.652344 294.527344 227.089844 C 290.976562 227.535156 290.414062 224.421875 293.636719 222.089844 C 314.535156 207.449219 348.867188 211.664062 352.867188 216.546875 C 356.878906 221.542969 351.765625 255.824219 332.207031 272.253906 C 329.203125 274.804688 326.304688 273.472656 327.644531 270.144531 C 332.085938 259.164062 341.984375 234.410156 337.316406 228.53125 Z M 337.316406 228.53125 " fill-opacity="1" fill-rule="nonzero"/></g></svg>