<svg xmlns="http://www.w3.org/2000/svg" xmlns:xlink="http://www.w3.org/1999/xlink" width="500" zoomAndPan="magnify" viewBox="0 0 375 374.999991" height="500" preserveAspectRatio="xMidYMid meet" version="1.0"><defs><clipPath id="id1"><path d="M 16.464844 16.464844 L 353.964844 16.464844 L 353.964844 353.964844 L 16.464844 353.964844 Z M 16.464844 16.464844 " clip-rule="nonzero"/></clipPath></defs><g clip-path="url(#id1)"><path fill="rgb(40.388489%, 22.749329%, 71.759033%)" d="M 353.964844 307.089844 C 353.964844 332.980469 332.980469 353.964844 307.089844 353.964844 L 63.339844 353.964844 C 37.453125 353.964844 16.464844 332.980469 16.464844 307.089844 L 16.464844 63.339844 C 16.464844 37.445312 37.453125 16.464844 63.339844 16.464844 L 307.089844 16.464844 C 332.980469 16.464844 353.964844 37.445312 353.964844 63.339844 Z M 353.964844 307.089844 " fill-opacity="1" fill-rule="nonzero"/></g><path fill="rgb(100%, 100%, 100%)" d="M 269.871094 200.214844 C 263.777344 191.777344 254.964844 185.964844 243.621094 182.871094 C 243.621094 182.871094 253.183594 179.402344 261.808594 166.464844 C 266.964844 158.214844 269.589844 148.277344 269.589844 136.652344 C 269.589844 116.496094 262.277344 101.027344 247.652344 90.433594 C 233.027344 79.839844 216.527344 72.714844 188.496094 72.714844 L 100.839844 72.714844 L 100.839844 297.714844 L 198.621094 297.714844 C 225.152344 297.527344 245.121094 291.808594 258.714844 280.839844 C 272.214844 269.683594 278.964844 253.183594 278.964844 231.152344 C 278.964844 218.964844 275.964844 208.652344 269.871094 200.214844 Z M 157.089844 110.214844 C 157.089844 110.214844 196.183594 110.214844 196.933594 110.214844 C 211.183594 110.214844 222.714844 121.746094 222.714844 135.996094 C 222.714844 150.246094 211.183594 161.777344 196.933594 161.777344 C 196.183594 161.777344 157.089844 161.777344 157.089844 161.777344 Z M 203.964844 260.214844 L 157.089844 260.214844 L 157.089844 203.964844 L 203.964844 203.964844 C 219.527344 203.964844 232.089844 216.527344 232.089844 232.089844 C 232.089844 247.652344 219.527344 260.214844 203.964844 260.214844 Z M 203.964844 260.214844 " fill-opacity="1" fill-rule="nonzero"/></svg>