<svg xmlns="http://www.w3.org/2000/svg" xmlns:xlink="http://www.w3.org/1999/xlink" width="500" zoomAndPan="magnify" viewBox="0 0 375 374.999991" height="500" preserveAspectRatio="xMidYMid meet" version="1.0"><path fill="rgb(0%, 32.939148%, 61.569214%)" d="M 175.347656 7.921875 C 180.546875 5.003906 186.953125 5.003906 192.144531 7.921875 C 217.839844 22.34375 295.160156 65.761719 320.863281 80.1875 C 326.0625 83.097656 329.265625 88.488281 329.265625 94.324219 C 329.265625 123.171875 329.265625 210 329.265625 238.847656 C 329.265625 244.683594 326.0625 250.074219 320.863281 252.996094 C 295.167969 267.417969 217.847656 310.835938 192.144531 325.257812 C 186.945312 328.175781 180.539062 328.175781 175.347656 325.257812 C 149.652344 310.835938 72.332031 267.417969 46.628906 252.996094 C 41.4375 250.074219 38.234375 244.691406 38.234375 238.855469 C 38.234375 210.007812 38.234375 123.179688 38.234375 94.332031 C 38.234375 88.496094 41.4375 83.105469 46.636719 80.1875 C 72.324219 65.761719 149.660156 22.34375 175.347656 7.921875 Z M 175.347656 7.921875 " fill-opacity="1" fill-rule="evenodd"/><path fill="rgb(0%, 52.549744%, 83.139038%)" d="M 40.5625 246.285156 C 38.527344 243.558594 38.234375 240.96875 38.234375 237.484375 C 38.234375 208.804688 38.234375 122.476562 38.234375 93.789062 C 38.234375 87.984375 41.429688 82.621094 46.613281 79.726562 C 72.214844 65.386719 149.277344 22.222656 174.882812 7.875 C 180.066406 4.972656 187.089844 5.035156 192.273438 7.9375 C 217.878906 22.277344 294.679688 65.074219 320.28125 79.410156 C 322.351562 80.578125 323.925781 81.976562 325.335938 83.824219 Z M 40.5625 246.285156 " fill-opacity="1" fill-rule="evenodd"/><path fill="rgb(100%, 100%, 100%)" d="M 183.75 59.351562 C 242.929688 59.351562 290.972656 107.402344 290.972656 166.589844 C 290.972656 225.777344 242.929688 273.828125 183.75 273.828125 C 124.570312 273.828125 76.527344 225.777344 76.527344 166.589844 C 76.527344 107.402344 124.570312 59.351562 183.75 59.351562 Z M 183.75 112.96875 C 213.335938 112.96875 237.359375 136.992188 237.359375 166.589844 C 237.359375 196.179688 213.335938 220.210938 183.75 220.210938 C 154.164062 220.210938 130.140625 196.179688 130.140625 166.589844 C 130.140625 136.992188 154.15625 112.96875 183.75 112.96875 Z M 183.75 112.96875 " fill-opacity="1" fill-rule="evenodd"/><path fill="rgb(0%, 45.878601%, 75.289917%)" d="M 325.320312 83.902344 C 329.273438 87.601562 329.195312 93.175781 329.195312 97.566406 C 329.195312 126.636719 328.953125 209.316406 329.265625 238.386719 C 329.296875 241.421875 328.292969 244.613281 326.792969 247.019531 L 180.632812 166.589844 Z M 325.320312 83.902344 " fill-opacity="1" fill-rule="evenodd"/><path fill="rgb(100%, 100%, 100%)" d="M 237.359375 143.609375 L 252.679688 143.609375 L 252.679688 189.570312 L 237.359375 189.570312 Z M 290.972656 143.609375 L 306.289062 143.609375 L 306.289062 189.570312 L 290.972656 189.570312 Z M 290.972656 143.609375 " fill-opacity="1" fill-rule="evenodd"/><path fill="rgb(100%, 100%, 100%)" d="M 222.042969 158.929688 L 267.996094 158.929688 L 267.996094 174.25 L 222.042969 174.25 Z M 275.65625 158.929688 L 321.605469 158.929688 L 321.605469 174.25 L 275.65625 174.25 Z M 275.65625 158.929688 " fill-opacity="1" fill-rule="evenodd"/></svg>