<svg xmlns="http://www.w3.org/2000/svg" xmlns:xlink="http://www.w3.org/1999/xlink" width="500" zoomAndPan="magnify" viewBox="0 0 375 374.999991" height="500" preserveAspectRatio="xMidYMid meet" version="1.0"><defs><clipPath id="id1"><path d="M 22.5 1 L 352.5 1 L 352.5 374 L 22.5 374 Z M 22.5 1 " clip-rule="nonzero"/></clipPath><clipPath id="id2"><path d="M 22.5 2 L 306 2 L 306 307 L 22.5 307 Z M 22.5 2 " clip-rule="nonzero"/></clipPath></defs><g clip-path="url(#id1)"><path fill="rgb(66.268921%, 72.549438%, 79.60968%)" d="M 352.488281 110.957031 C 352.472656 104.714844 351.144531 99.199219 348.453125 94.464844 C 345.796875 89.808594 341.828125 85.910156 336.515625 82.824219 C 292.585938 57.46875 248.601562 32.1875 204.683594 6.808594 C 192.851562 -0.0351562 181.363281 0.214844 169.609375 7.15625 C 152.128906 17.476562 64.578125 67.683594 38.484375 82.808594 C 27.746094 89.035156 22.519531 98.5625 22.515625 110.945312 C 22.5 161.9375 22.515625 212.933594 22.5 263.933594 C 22.503906 270.03125 23.78125 275.445312 26.359375 280.109375 C 29.007812 284.90625 33.03125 288.914062 38.476562 292.058594 C 64.566406 307.191406 152.128906 357.390625 169.613281 367.714844 C 181.371094 374.664062 192.855469 374.90625 204.703125 368.0625 C 248.605469 342.679688 292.589844 317.402344 336.535156 292.046875 C 341.972656 288.886719 345.996094 284.878906 348.652344 280.097656 C 351.214844 275.429688 352.503906 270.015625 352.503906 263.90625 C 352.503906 263.90625 352.503906 161.953125 352.492188 110.960938 " fill-opacity="1" fill-rule="nonzero"/></g><g clip-path="url(#id2)"><path fill="rgb(49.798584%, 54.508972%, 59.999084%)" d="M 204.386719 7.140625 C 192.566406 0.316406 181.105469 0.5625 169.375 7.484375 C 151.921875 17.78125 64.511719 67.859375 38.457031 82.945312 C 27.738281 89.152344 22.519531 98.65625 22.515625 111.007812 C 22.5 161.875 22.515625 212.726562 22.5 263.59375 C 22.503906 269.679688 23.777344 275.066406 26.351562 279.722656 C 29 284.503906 33.015625 288.511719 38.449219 291.65625 C 44.417969 295.113281 53.609375 300.410156 64.4375 306.636719 L 305.609375 65.453125 C 271.871094 46.027344 238.113281 26.613281 204.390625 7.140625 " fill-opacity="1" fill-rule="nonzero"/></g><path fill="rgb(100%, 100%, 100%)" d="M 221.609375 164.195312 L 272.964844 164.554688 C 272.964844 143.15625 251.296875 90.753906 189.203125 90.753906 C 149.640625 90.753906 96.453125 115.90625 96.453125 188.222656 C 96.453125 260.539062 148.59375 284.113281 189.203125 284.113281 C 254.96875 284.113281 270.683594 238.609375 270.683594 212.894531 L 221.6875 210.097656 C 221.6875 210.097656 223 239.835938 188.945312 239.835938 C 157.503906 239.835938 152.257812 201.320312 152.257812 188.222656 C 152.257812 168.304688 159.335938 136.351562 188.945312 136.351562 C 218.554688 136.351562 221.609375 164.195312 221.609375 164.195312 " fill-opacity="1" fill-rule="nonzero"/></svg>