<svg xmlns="http://www.w3.org/2000/svg" xmlns:xlink="http://www.w3.org/1999/xlink" width="500" zoomAndPan="magnify" viewBox="0 0 375 374.999991" height="500" preserveAspectRatio="xMidYMid meet" version="1.0"><defs><clipPath id="id1"><path d="M 37.5 23.675781 L 333.75 23.675781 L 333.75 355.175781 L 37.5 355.175781 Z M 37.5 23.675781 " clip-rule="nonzero"/></clipPath></defs><g clip-path="url(#id1)"><path fill="rgb(0.779724%, 46.669006%, 74.119568%)" d="M 333.710938 23.675781 L 37.539062 23.675781 L 63.671875 320.28125 L 185.625 355.175781 L 307.578125 320.28125 Z M 333.710938 23.675781 " fill-opacity="1" fill-rule="nonzero"/></g><path fill="rgb(1.179504%, 60.778809%, 89.7995%)" d="M 185.625 49.847656 L 185.625 328.132812 L 283.1875 300.214844 L 304.964844 49.847656 Z M 185.625 49.847656 " fill-opacity="1" fill-rule="nonzero"/><path fill="rgb(100%, 100%, 100%)" d="M 264.894531 93.464844 L 185.625 93.464844 L 185.625 128.359375 L 228.308594 128.359375 L 225.695312 163.253906 L 185.625 163.253906 L 185.625 198.148438 L 223.953125 198.148438 L 221.339844 237.40625 L 185.625 249.617188 L 185.625 286.257812 L 254.441406 263.578125 L 260.539062 163.253906 Z M 264.894531 93.464844 " fill-opacity="1" fill-rule="nonzero"/><path fill="rgb(93.328857%, 93.328857%, 93.328857%)" d="M 185.625 93.464844 L 185.625 128.359375 L 108.097656 128.359375 L 105.484375 93.464844 Z M 145.554688 163.253906 L 147.296875 198.148438 L 185.625 198.148438 L 185.625 163.253906 Z M 149.039062 215.597656 L 114.195312 215.597656 L 116.808594 263.578125 L 185.625 286.257812 L 185.625 249.617188 L 149.910156 237.40625 Z M 149.039062 215.597656 " fill-opacity="1" fill-rule="nonzero"/></svg>