<svg xmlns="http://www.w3.org/2000/svg" xmlns:xlink="http://www.w3.org/1999/xlink" width="500" zoomAndPan="magnify" viewBox="0 0 375 374.999991" height="500" preserveAspectRatio="xMidYMid meet" version="1.0"><defs><clipPath id="id1"><path d="M 7.441406 69.070312 L 366.691406 69.070312 L 366.691406 306 L 7.441406 306 Z M 7.441406 69.070312 " clip-rule="nonzero"/></clipPath></defs><g clip-path="url(#id1)"><path fill="rgb(5.879211%, 50.19989%, 79.998779%)" d="M 150.855469 69.308594 L 150.855469 105.144531 L 79.148438 105.144531 L 79.148438 140.980469 L 43.292969 140.980469 L 43.292969 176.816406 L 15.507812 176.816406 C 12.035156 176.816406 9.175781 179.226562 8.5625 182.640625 C 8.503906 182.894531 7.441406 188.886719 7.441406 196.527344 C 7.441406 201.539062 7.917969 207 8.785156 212.429688 C 16.992188 210.472656 32.035156 207.53125 29.402344 197.871094 C 43.546875 214.25 77.496094 209.296875 86.09375 201.230469 C 95.703125 215.148438 151.667969 209.828125 155.558594 198.992188 C 167.605469 213.101562 204.941406 213.101562 216.957031 198.992188 C 220.851562 209.828125 276.59375 215.148438 286.199219 201.230469 C 289.253906 204.089844 295.613281 206.46875 303.007812 207.726562 C 305.5 202.996094 307.796875 198.238281 309.953125 193.167969 C 355.496094 192.609375 365.328125 159.878906 365.75 158.453125 C 366.535156 155.707031 365.46875 152.878906 363.285156 151.058594 C 362.527344 150.417969 345.722656 136.78125 318.46875 141.429688 C 310.820312 116.539062 291.128906 105.199219 290.234375 104.695312 C 287.65625 103.238281 284.464844 103.464844 282.167969 105.367188 C 281.4375 105.957031 264.492188 120.320312 267.152344 149.714844 C 267.824219 157.109375 269.757812 163.632812 272.753906 169.425781 C 266.871094 172.703125 256.761719 176.816406 240.488281 176.816406 L 236.902344 176.816406 L 236.902344 140.980469 L 201.046875 140.980469 L 201.046875 69.308594 Z M 303.007812 207.726562 C 302.136719 209.40625 301.015625 211.03125 300.09375 212.65625 L 364.851562 212.65625 C 357.066406 210.695312 340.34375 208.0625 343.117188 197.871094 C 333.957031 208.457031 316.5625 210.023438 303.007812 207.726562 Z M 300.09375 212.65625 L 8.785156 212.65625 C 10.523438 223.183594 14.105469 234.214844 19.542969 244.910156 C 58.476562 254.0625 99.34375 240.121094 99.761719 239.980469 C 103.515625 238.664062 107.4375 240.738281 108.726562 244.460938 C 110.042969 248.183594 108.195312 252.355469 104.46875 253.644531 C 103.097656 254.121094 78.476562 262.378906 48.222656 262.378906 C 42.230469 262.378906 35.925781 262.042969 29.625 261.257812 C 48.449219 286.207031 80.351562 305.832031 129.34375 305.832031 C 206.820312 305.832031 266.398438 272.933594 300.09375 212.65625 Z M 8.785156 212.65625 C 8.757812 212.542969 8.8125 212.542969 8.785156 212.429688 C 8.308594 212.542969 7.859375 212.542969 7.441406 212.65625 Z M 165.195312 83.640625 L 186.707031 83.640625 L 186.707031 105.144531 L 165.195312 105.144531 Z M 93.488281 119.480469 L 115 119.480469 L 115 140.980469 L 93.488281 140.980469 Z M 129.34375 119.480469 L 150.855469 119.480469 L 150.855469 140.980469 L 129.34375 140.980469 Z M 165.195312 119.480469 L 186.707031 119.480469 L 186.707031 140.980469 L 165.195312 140.980469 Z M 57.636719 155.316406 L 79.148438 155.316406 L 79.148438 176.816406 L 57.636719 176.816406 Z M 93.488281 155.316406 L 115 155.316406 L 115 176.816406 L 93.488281 176.816406 Z M 129.34375 155.316406 L 150.855469 155.316406 L 150.855469 176.816406 L 129.34375 176.816406 Z M 165.195312 155.316406 L 186.707031 155.316406 L 186.707031 176.816406 L 165.195312 176.816406 Z M 201.046875 155.316406 L 222.558594 155.316406 L 222.558594 176.816406 L 201.046875 176.816406 Z M 122.171875 226.988281 C 123.09375 226.988281 124.046875 227.128906 124.859375 227.4375 C 123.992188 227.941406 123.292969 228.808594 123.292969 229.902344 C 123.292969 231.527344 124.582031 233.039062 126.203125 233.039062 C 127.296875 233.039062 128.390625 232.367188 128.894531 231.46875 C 129.257812 232.308594 129.34375 233.175781 129.34375 234.15625 C 129.34375 238.105469 126.121094 241.324219 122.171875 241.324219 C 118.222656 241.324219 115 238.105469 115 234.15625 C 115 230.210938 118.222656 226.988281 122.171875 226.988281 Z M 122.171875 226.988281 " fill-opacity="1" fill-rule="nonzero"/></g></svg>