<svg xmlns="http://www.w3.org/2000/svg" xmlns:xlink="http://www.w3.org/1999/xlink" width="500" zoomAndPan="magnify" viewBox="0 0 375 374.999991" height="500" preserveAspectRatio="xMidYMid meet" version="1.0"><defs><clipPath id="id1"><path d="M 17.933594 17.933594 L 356.933594 17.933594 L 356.933594 356.933594 L 17.933594 356.933594 Z M 17.933594 17.933594 " clip-rule="nonzero"/></clipPath></defs><g clip-path="url(#id1)"><path fill="rgb(94.119263%, 23.529053%, 18.03894%)" d="M 350.535156 172.335938 L 202.53125 24.332031 C 202.023438 23.828125 201.496094 23.347656 200.941406 22.894531 C 200.390625 22.441406 199.816406 22.015625 199.222656 21.617188 C 198.628906 21.21875 198.015625 20.851562 197.382812 20.515625 C 196.753906 20.179688 196.109375 19.871094 195.449219 19.597656 C 194.789062 19.324219 194.117188 19.085938 193.429688 18.878906 C 192.746094 18.667969 192.054688 18.496094 191.351562 18.355469 C 190.652344 18.21875 189.945312 18.113281 189.234375 18.042969 C 188.523438 17.972656 187.808594 17.9375 187.09375 17.9375 C 186.378906 17.9375 185.667969 17.972656 184.953125 18.042969 C 184.242188 18.113281 183.535156 18.21875 182.835938 18.355469 C 182.132812 18.496094 181.441406 18.667969 180.757812 18.878906 C 180.074219 19.085938 179.402344 19.324219 178.742188 19.597656 C 178.078125 19.871094 177.433594 20.179688 176.804688 20.515625 C 176.171875 20.851562 175.5625 21.21875 174.964844 21.617188 C 174.371094 22.015625 173.800781 22.441406 173.246094 22.894531 C 172.695312 23.347656 172.164062 23.828125 171.660156 24.332031 L 140.9375 55.054688 L 179.921875 94.039062 C 188.992188 90.859375 199.371094 93.03125 206.597656 100.257812 C 207.453125 101.113281 208.246094 102.027344 208.972656 102.996094 C 209.699219 103.964844 210.355469 104.976562 210.941406 106.039062 C 211.527344 107.097656 212.039062 108.191406 212.472656 109.324219 C 212.902344 110.457031 213.253906 111.609375 213.527344 112.792969 C 213.796875 113.972656 213.984375 115.164062 214.085938 116.371094 C 214.191406 117.578125 214.210938 118.785156 214.144531 119.996094 C 214.078125 121.207031 213.929688 122.40625 213.695312 123.59375 C 213.464844 124.78125 213.148438 125.949219 212.753906 127.09375 L 250.328125 164.667969 C 259.417969 161.53125 269.90625 163.554688 277.164062 170.832031 C 277.765625 171.433594 278.335938 172.066406 278.875 172.722656 C 279.417969 173.378906 279.921875 174.0625 280.394531 174.769531 C 280.867188 175.480469 281.304688 176.207031 281.707031 176.957031 C 282.109375 177.707031 282.472656 178.476562 282.796875 179.265625 C 283.125 180.050781 283.410156 180.851562 283.660156 181.664062 C 283.90625 182.480469 284.113281 183.304688 284.277344 184.140625 C 284.445312 184.972656 284.570312 185.816406 284.652344 186.660156 C 284.738281 187.507812 284.777344 188.359375 284.777344 189.210938 C 284.777344 190.0625 284.738281 190.910156 284.652344 191.757812 C 284.570312 192.605469 284.445312 193.445312 284.28125 194.28125 C 284.113281 195.113281 283.90625 195.941406 283.660156 196.753906 C 283.414062 197.570312 283.125 198.367188 282.800781 199.15625 C 282.476562 199.941406 282.113281 200.710938 281.710938 201.460938 C 281.308594 202.210938 280.871094 202.941406 280.398438 203.648438 C 279.925781 204.355469 279.417969 205.039062 278.878906 205.695312 C 278.339844 206.355469 277.769531 206.984375 277.167969 207.585938 C 276.5625 208.1875 275.933594 208.757812 275.277344 209.300781 C 274.617188 209.839844 273.933594 210.34375 273.226562 210.820312 C 272.519531 211.292969 271.789062 211.726562 271.039062 212.128906 C 270.289062 212.53125 269.519531 212.894531 268.734375 213.21875 C 267.945312 213.542969 267.144531 213.832031 266.332031 214.078125 C 265.515625 214.324219 264.691406 214.53125 263.855469 214.695312 C 263.023438 214.863281 262.179688 214.988281 261.335938 215.070312 C 260.488281 215.152344 259.636719 215.195312 258.785156 215.195312 C 257.933594 215.195312 257.085938 215.152344 256.238281 215.066406 C 255.390625 214.984375 254.550781 214.859375 253.714844 214.691406 C 252.882812 214.527344 252.058594 214.320312 251.242188 214.070312 C 250.429688 213.824219 249.628906 213.539062 248.839844 213.210938 C 248.054688 212.886719 247.285156 212.519531 246.535156 212.121094 C 245.785156 211.71875 245.058594 211.28125 244.347656 210.808594 C 243.640625 210.332031 242.960938 209.828125 242.300781 209.285156 C 241.644531 208.746094 241.015625 208.175781 240.414062 207.574219 C 232.785156 199.945312 230.898438 188.714844 234.753906 179.320312 L 199.710938 144.273438 L 199.710938 236.492188 C 202.273438 237.761719 204.566406 239.398438 206.597656 241.410156 C 207.199219 242.011719 207.769531 242.640625 208.308594 243.296875 C 208.847656 243.957031 209.355469 244.636719 209.828125 245.347656 C 210.300781 246.054688 210.738281 246.78125 211.140625 247.53125 C 211.539062 248.28125 211.902344 249.050781 212.230469 249.835938 C 212.554688 250.625 212.839844 251.421875 213.085938 252.238281 C 213.335938 253.050781 213.542969 253.875 213.707031 254.710938 C 213.875 255.542969 213.996094 256.386719 214.082031 257.230469 C 214.164062 258.078125 214.207031 258.929688 214.207031 259.777344 C 214.207031 260.628906 214.164062 261.476562 214.082031 262.324219 C 213.996094 263.171875 213.875 264.011719 213.707031 264.847656 C 213.542969 265.679688 213.335938 266.503906 213.085938 267.320312 C 212.839844 268.132812 212.554688 268.933594 212.230469 269.71875 C 211.902344 270.507812 211.539062 271.273438 211.140625 272.023438 C 210.738281 272.773438 210.300781 273.503906 209.828125 274.210938 C 209.355469 274.917969 208.847656 275.601562 208.308594 276.257812 C 207.769531 276.917969 207.199219 277.546875 206.597656 278.148438 C 205.996094 278.75 205.367188 279.320312 204.707031 279.859375 C 204.050781 280.398438 203.367188 280.90625 202.660156 281.378906 C 201.953125 281.851562 201.222656 282.289062 200.472656 282.691406 C 199.722656 283.089844 198.957031 283.453125 198.167969 283.78125 C 197.382812 284.105469 196.582031 284.390625 195.769531 284.636719 C 194.953125 284.886719 194.128906 285.09375 193.296875 285.257812 C 192.460938 285.425781 191.621094 285.546875 190.773438 285.632812 C 189.925781 285.714844 189.078125 285.757812 188.226562 285.757812 C 187.378906 285.757812 186.527344 285.714844 185.679688 285.632812 C 184.835938 285.546875 183.996094 285.425781 183.160156 285.257812 C 182.324219 285.09375 181.5 284.886719 180.6875 284.636719 C 179.871094 284.390625 179.074219 284.105469 178.285156 283.78125 C 177.5 283.453125 176.730469 283.089844 175.980469 282.691406 C 175.230469 282.289062 174.503906 281.851562 173.796875 281.378906 C 173.085938 280.90625 172.40625 280.398438 171.746094 279.859375 C 171.089844 279.320312 170.460938 278.75 169.859375 278.148438 C 169.257812 277.546875 168.683594 276.917969 168.144531 276.261719 C 167.605469 275.601562 167.097656 274.921875 166.625 274.214844 C 166.148438 273.503906 165.710938 272.777344 165.3125 272.027344 C 164.910156 271.277344 164.546875 270.507812 164.21875 269.722656 C 163.894531 268.9375 163.605469 268.136719 163.359375 267.320312 C 163.113281 266.507812 162.90625 265.683594 162.738281 264.847656 C 162.574219 264.011719 162.449219 263.171875 162.363281 262.324219 C 162.28125 261.480469 162.238281 260.628906 162.238281 259.777344 C 162.238281 258.925781 162.28125 258.078125 162.363281 257.230469 C 162.449219 256.382812 162.574219 255.542969 162.738281 254.710938 C 162.90625 253.875 163.113281 253.050781 163.359375 252.234375 C 163.605469 251.421875 163.894531 250.621094 164.21875 249.835938 C 164.546875 249.050781 164.910156 248.28125 165.3125 247.53125 C 165.710938 246.78125 166.148438 246.050781 166.625 245.34375 C 167.097656 244.636719 167.605469 243.953125 168.144531 243.296875 C 168.683594 242.640625 169.257812 242.011719 169.859375 241.410156 C 172.367188 238.910156 175.15625 237.011719 178.363281 235.742188 L 178.363281 142.664062 C 175.273438 141.394531 172.367188 139.519531 169.859375 136.996094 C 168.953125 136.089844 168.117188 135.125 167.351562 134.09375 C 166.589844 133.0625 165.90625 131.984375 165.300781 130.851562 C 164.699219 129.722656 164.179688 128.554688 163.75 127.347656 C 163.320312 126.136719 162.980469 124.90625 162.734375 123.648438 C 162.488281 122.390625 162.332031 121.121094 162.273438 119.839844 C 162.214844 118.5625 162.25 117.28125 162.378906 116.007812 C 162.507812 114.734375 162.730469 113.472656 163.046875 112.230469 C 163.363281 110.988281 163.769531 109.777344 164.265625 108.59375 L 125.808594 70.160156 L 24.320312 171.542969 C 23.816406 172.046875 23.335938 172.578125 22.882812 173.128906 C 22.425781 173.683594 22 174.257812 21.605469 174.851562 C 21.207031 175.445312 20.839844 176.058594 20.5 176.6875 C 20.164062 177.320312 19.859375 177.964844 19.585938 178.625 C 19.308594 179.285156 19.070312 179.960938 18.863281 180.644531 C 18.652344 181.328125 18.480469 182.023438 18.339844 182.722656 C 18.199219 183.425781 18.097656 184.132812 18.027344 184.84375 C 17.957031 185.554688 17.921875 186.269531 17.921875 186.984375 C 17.921875 187.699219 17.957031 188.414062 18.027344 189.125 C 18.097656 189.835938 18.199219 190.542969 18.339844 191.246094 C 18.480469 191.945312 18.652344 192.640625 18.863281 193.324219 C 19.070312 194.007812 19.308594 194.679688 19.585938 195.339844 C 19.859375 196 20.164062 196.648438 20.5 197.277344 C 20.839844 197.910156 21.207031 198.519531 21.605469 199.117188 C 22 199.710938 22.425781 200.285156 22.882812 200.835938 C 23.335938 201.390625 23.816406 201.917969 24.320312 202.425781 L 172.335938 350.417969 C 172.84375 350.925781 173.371094 351.402344 173.925781 351.859375 C 174.476562 352.3125 175.050781 352.738281 175.644531 353.132812 C 176.238281 353.53125 176.851562 353.898438 177.480469 354.234375 C 178.113281 354.574219 178.757812 354.878906 179.417969 355.152344 C 180.078125 355.425781 180.75 355.667969 181.433594 355.875 C 182.121094 356.082031 182.8125 356.253906 183.511719 356.394531 C 184.214844 356.535156 184.921875 356.640625 185.632812 356.710938 C 186.34375 356.777344 187.058594 356.8125 187.773438 356.8125 C 188.488281 356.8125 189.199219 356.777344 189.910156 356.710938 C 190.625 356.640625 191.328125 356.535156 192.03125 356.394531 C 192.730469 356.253906 193.425781 356.082031 194.109375 355.875 C 194.792969 355.667969 195.464844 355.425781 196.125 355.152344 C 196.785156 354.878906 197.433594 354.574219 198.0625 354.234375 C 198.691406 353.898438 199.304688 353.53125 199.898438 353.132812 C 200.496094 352.738281 201.066406 352.3125 201.621094 351.859375 C 202.171875 351.402344 202.703125 350.925781 203.207031 350.417969 L 350.535156 203.324219 C 351.039062 202.820312 351.519531 202.289062 351.976562 201.738281 C 352.429688 201.183594 352.855469 200.609375 353.253906 200.015625 C 353.648438 199.421875 354.019531 198.808594 354.355469 198.179688 C 354.691406 197.546875 355 196.902344 355.273438 196.242188 C 355.546875 195.582031 355.785156 194.90625 355.996094 194.222656 C 356.203125 193.539062 356.375 192.847656 356.515625 192.144531 C 356.65625 191.441406 356.761719 190.738281 356.832031 190.023438 C 356.902344 189.3125 356.9375 188.597656 356.9375 187.882812 C 356.9375 187.167969 356.902344 186.457031 356.832031 185.742188 C 356.761719 185.03125 356.65625 184.324219 356.515625 183.625 C 356.375 182.921875 356.203125 182.230469 355.996094 181.542969 C 355.785156 180.859375 355.546875 180.1875 355.273438 179.527344 C 355 178.867188 354.691406 178.21875 354.355469 177.589844 C 354.019531 176.957031 353.648438 176.347656 353.253906 175.75 C 352.855469 175.15625 352.429688 174.582031 351.976562 174.03125 C 351.519531 173.476562 351.039062 172.949219 350.535156 172.445312 " fill-opacity="1" fill-rule="nonzero"/></g></svg>