<svg xmlns="http://www.w3.org/2000/svg" xmlns:xlink="http://www.w3.org/1999/xlink" width="500" zoomAndPan="magnify" viewBox="0 0 375 374.999991" height="500" preserveAspectRatio="xMidYMid meet" version="1.0"><defs><clipPath id="id1"><path d="M 18.75 18.75 L 356.25 18.75 L 356.25 356.25 L 18.75 356.25 Z M 18.75 18.75 " clip-rule="nonzero"/></clipPath></defs><g clip-path="url(#id1)"><path fill="rgb(9.01947%, 8.239746%, 8.239746%)" d="M 69.375 18.75 L 305.625 18.75 C 307.28125 18.75 308.9375 18.832031 310.585938 18.996094 C 312.238281 19.15625 313.875 19.398438 315.5 19.722656 C 317.128906 20.046875 318.734375 20.449219 320.320312 20.929688 C 321.90625 21.410156 323.464844 21.96875 325 22.605469 C 326.53125 23.238281 328.027344 23.945312 329.488281 24.726562 C 330.953125 25.511719 332.371094 26.359375 333.75 27.28125 C 335.128906 28.203125 336.460938 29.191406 337.742188 30.242188 C 339.023438 31.292969 340.25 32.40625 341.421875 33.578125 C 342.59375 34.75 343.707031 35.976562 344.757812 37.257812 C 345.808594 38.539062 346.796875 39.871094 347.71875 41.25 C 348.640625 42.628906 349.492188 44.046875 350.273438 45.511719 C 351.054688 46.972656 351.761719 48.46875 352.394531 50.003906 C 353.03125 51.535156 353.589844 53.09375 354.070312 54.679688 C 354.550781 56.265625 354.953125 57.871094 355.277344 59.5 C 355.601562 61.125 355.84375 62.761719 356.007812 64.414062 C 356.167969 66.0625 356.25 67.71875 356.25 69.375 L 356.25 305.625 C 356.25 307.285156 356.167969 308.9375 356.007812 310.585938 C 355.84375 312.238281 355.601562 313.875 355.277344 315.5 C 354.953125 317.128906 354.550781 318.734375 354.070312 320.320312 C 353.589844 321.90625 353.03125 323.46875 352.394531 325 C 351.761719 326.53125 351.054688 328.027344 350.273438 329.488281 C 349.492188 330.953125 348.640625 332.371094 347.71875 333.75 C 346.796875 335.128906 345.808594 336.460938 344.757812 337.742188 C 343.707031 339.023438 342.59375 340.25 341.421875 341.421875 C 340.25 342.59375 339.023438 343.707031 337.742188 344.757812 C 336.460938 345.8125 335.128906 346.796875 333.75 347.71875 C 332.371094 348.640625 330.953125 349.492188 329.488281 350.273438 C 328.027344 351.054688 326.53125 351.761719 325 352.398438 C 323.464844 353.03125 321.90625 353.589844 320.320312 354.070312 C 318.734375 354.550781 317.128906 354.953125 315.5 355.277344 C 313.875 355.601562 312.238281 355.84375 310.585938 356.007812 C 308.9375 356.167969 307.28125 356.25 305.625 356.25 L 69.375 356.25 C 67.71875 356.25 66.0625 356.167969 64.414062 356.007812 C 62.761719 355.84375 61.125 355.601562 59.5 355.277344 C 57.871094 354.953125 56.265625 354.550781 54.679688 354.070312 C 53.09375 353.589844 51.535156 353.03125 50 352.398438 C 48.46875 351.761719 46.972656 351.054688 45.511719 350.273438 C 44.046875 349.492188 42.628906 348.640625 41.25 347.71875 C 39.871094 346.796875 38.539062 345.8125 37.257812 344.757812 C 35.976562 343.707031 34.75 342.59375 33.578125 341.421875 C 32.40625 340.25 31.292969 339.023438 30.242188 337.742188 C 29.191406 336.460938 28.203125 335.128906 27.28125 333.75 C 26.359375 332.371094 25.507812 330.953125 24.726562 329.488281 C 23.945312 328.027344 23.238281 326.53125 22.605469 325 C 21.96875 323.46875 21.410156 321.90625 20.929688 320.320312 C 20.449219 318.734375 20.046875 317.128906 19.722656 315.5 C 19.398438 313.875 19.15625 312.238281 18.992188 310.585938 C 18.832031 308.9375 18.75 307.285156 18.75 305.625 L 18.75 69.375 C 18.75 67.71875 18.832031 66.0625 18.992188 64.414062 C 19.15625 62.761719 19.398438 61.125 19.722656 59.5 C 20.046875 57.871094 20.449219 56.265625 20.929688 54.679688 C 21.410156 53.09375 21.96875 51.535156 22.605469 50.003906 C 23.238281 48.46875 23.945312 46.972656 24.726562 45.511719 C 25.507812 44.046875 26.359375 42.628906 27.28125 41.25 C 28.203125 39.871094 29.191406 38.539062 30.242188 37.257812 C 31.292969 35.976562 32.40625 34.75 33.578125 33.578125 C 34.75 32.40625 35.976562 31.292969 37.257812 30.242188 C 38.539062 29.191406 39.871094 28.203125 41.25 27.28125 C 42.628906 26.359375 44.046875 25.511719 45.511719 24.726562 C 46.972656 23.945312 48.46875 23.238281 50 22.605469 C 51.535156 21.96875 53.09375 21.410156 54.679688 20.929688 C 56.265625 20.449219 57.871094 20.046875 59.5 19.722656 C 61.125 19.398438 62.761719 19.15625 64.414062 18.996094 C 66.0625 18.832031 67.71875 18.75 69.375 18.75 Z M 69.375 18.75 " fill-opacity="1" fill-rule="nonzero"/></g><path fill="rgb(100%, 100%, 100%)" d="M 97.191406 186.839844 C 108.398438 206.617188 129.492188 218.480469 164.429688 221.777344 C 159.15625 225.734375 153.222656 232.984375 152.5625 241.554688 C 145.972656 245.507812 133.445312 246.828125 123.558594 243.53125 C 109.714844 238.917969 104.441406 211.890625 83.347656 215.84375 C 78.734375 216.503906 79.394531 219.800781 83.347656 222.4375 C 89.941406 226.390625 97.191406 232.984375 100.488281 242.210938 C 108.398438 262.648438 124.878906 267.921875 151.246094 263.964844 L 151.246094 293.628906 C 151.246094 302.855469 138.0625 305.492188 138.0625 310.109375 C 138.0625 312.085938 142.675781 312.085938 145.972656 312.085938 C 152.5625 312.085938 167.066406 306.152344 167.066406 296.925781 C 167.066406 289.015625 167.066406 262.648438 167.722656 258.03125 C 167.722656 248.144531 172.996094 244.847656 172.996094 244.847656 C 172.996094 244.847656 173.65625 298.902344 171.679688 305.492188 C 169.042969 314.0625 165.085938 312.746094 165.085938 316.699219 C 165.085938 322.632812 182.226562 318.019531 188.160156 305.492188 C 192.773438 295.605469 190.796875 242.871094 190.136719 243.53125 L 194.75 243.53125 C 194.75 243.53125 194.75 267.921875 195.410156 278.46875 C 195.410156 289.671875 194.75 304.175781 201.34375 311.425781 C 205.957031 316.039062 220.457031 323.949219 220.457031 316.699219 C 220.457031 312.746094 212.546875 308.789062 212.546875 297.582031 L 212.546875 245.507812 C 219.140625 245.507812 217.820312 262.648438 217.820312 262.648438 L 218.480469 294.289062 C 218.480469 294.289062 217.164062 306.152344 231.003906 310.765625 C 236.277344 312.746094 246.824219 312.746094 247.484375 310.109375 C 248.144531 307.472656 234.300781 302.855469 234.300781 293.628906 L 234.300781 261.328125 C 234.300781 237.597656 231.003906 229.027344 219.800781 221.777344 C 254.734375 218.480469 276.488281 209.914062 287.035156 186.839844 C 293.628906 173.65625 294.945312 157.835938 294.945312 145.972656 C 294.945312 113.011719 279.125 101.808594 275.828125 95.875 C 280.445312 70.824219 275.171875 59.621094 272.535156 56.324219 C 263.304688 53.027344 240.894531 64.234375 229.027344 72.144531 C 209.253906 66.210938 167.066406 66.871094 151.246094 73.460938 C 122.242188 53.027344 107.078125 56.324219 107.078125 56.324219 C 107.078125 56.324219 97.191406 74.121094 104.441406 99.828125 C 94.554688 111.695312 87.964844 120.265625 87.304688 142.675781 C 87.304688 160.472656 89.28125 171.679688 97.191406 186.839844 Z M 97.191406 186.839844 " fill-opacity="1" fill-rule="nonzero"/></svg>