<svg xmlns="http://www.w3.org/2000/svg" xmlns:xlink="http://www.w3.org/1999/xlink" width="500" zoomAndPan="magnify" viewBox="0 0 375 374.999991" height="500" preserveAspectRatio="xMidYMid meet" version="1.0"><defs><clipPath id="id1"><path d="M 122 154 L 253 154 L 253 342.210938 L 122 342.210938 Z M 122 154 " clip-rule="nonzero"/></clipPath><clipPath id="id2"><path d="M 187 154 L 335 154 L 335 342.210938 L 187 342.210938 Z M 187 154 " clip-rule="nonzero"/></clipPath><clipPath id="id3"><path d="M 252 32.460938 L 335 32.460938 L 335 155 L 252 155 Z M 252 32.460938 " clip-rule="nonzero"/></clipPath><clipPath id="id4"><path d="M 187 154 L 358.699219 154 L 358.699219 342.210938 L 187 342.210938 Z M 187 154 " clip-rule="nonzero"/></clipPath><clipPath id="id5"><path d="M 40 154 L 188 154 L 188 342.210938 L 40 342.210938 Z M 40 154 " clip-rule="nonzero"/></clipPath><clipPath id="id6"><path d="M 40 32.460938 L 123 32.460938 L 123 155 L 40 155 Z M 40 32.460938 " clip-rule="nonzero"/></clipPath><clipPath id="id7"><path d="M 16 154 L 188 154 L 188 342.210938 L 16 342.210938 Z M 16 154 " clip-rule="nonzero"/></clipPath></defs><g clip-path="url(#id1)"><path fill="rgb(89.7995%, 22.349548%, 20.779419%)" d="M 187.324219 342.210938 L 122.109375 154.730469 L 252.535156 154.730469 Z M 187.324219 342.210938 " fill-opacity="1" fill-rule="nonzero"/></g><g clip-path="url(#id2)"><path fill="rgb(100%, 43.919373%, 26.269531%)" d="M 187.324219 342.210938 L 334.050781 154.730469 L 252.535156 154.730469 Z M 187.324219 342.210938 " fill-opacity="1" fill-rule="nonzero"/></g><g clip-path="url(#id3)"><path fill="rgb(89.7995%, 22.349548%, 20.779419%)" d="M 293.292969 32.460938 L 334.050781 154.730469 L 252.535156 154.730469 Z M 293.292969 32.460938 " fill-opacity="1" fill-rule="nonzero"/></g><g clip-path="url(#id4)"><path fill="rgb(100%, 65.489197%, 14.898682%)" d="M 187.324219 342.210938 L 334.050781 154.730469 L 358.507812 219.941406 Z M 187.324219 342.210938 " fill-opacity="1" fill-rule="nonzero"/></g><g clip-path="url(#id5)"><path fill="rgb(100%, 43.919373%, 26.269531%)" d="M 187.324219 342.210938 L 40.59375 154.730469 L 122.109375 154.730469 Z M 187.324219 342.210938 " fill-opacity="1" fill-rule="nonzero"/></g><g clip-path="url(#id6)"><path fill="rgb(89.7995%, 22.349548%, 20.779419%)" d="M 81.351562 32.460938 L 40.59375 154.730469 L 122.109375 154.730469 Z M 81.351562 32.460938 " fill-opacity="1" fill-rule="nonzero"/></g><g clip-path="url(#id7)"><path fill="rgb(100%, 65.489197%, 14.898682%)" d="M 187.324219 342.210938 L 40.59375 154.730469 L 16.140625 219.941406 Z M 187.324219 342.210938 " fill-opacity="1" fill-rule="nonzero"/></g></svg>