<svg xmlns="http://www.w3.org/2000/svg" xmlns:xlink="http://www.w3.org/1999/xlink" width="500" zoomAndPan="magnify" viewBox="0 0 375 374.999991" height="500" preserveAspectRatio="xMidYMid meet" version="1.0"><defs><clipPath id="id1"><path d="M 159 9.449219 L 216 9.449219 L 216 65 L 159 65 Z M 159 9.449219 " clip-rule="nonzero"/></clipPath><clipPath id="id2"><path d="M 159 310 L 216 310 L 216 365.699219 L 159 365.699219 Z M 159 310 " clip-rule="nonzero"/></clipPath><clipPath id="id3"><path d="M 33.265625 231 L 89 231 L 89 287 L 33.265625 287 Z M 33.265625 231 " clip-rule="nonzero"/></clipPath><clipPath id="id4"><path d="M 286 231 L 341.515625 231 L 341.515625 287 L 286 287 Z M 286 231 " clip-rule="nonzero"/></clipPath><clipPath id="id5"><path d="M 33.265625 88 L 89 88 L 89 145 L 33.265625 145 Z M 33.265625 88 " clip-rule="nonzero"/></clipPath><clipPath id="id6"><path d="M 286 88 L 341.515625 88 L 341.515625 145 L 286 145 Z M 286 88 " clip-rule="nonzero"/></clipPath></defs><path fill="rgb(100%, 25.099182%, 50.588989%)" d="M 187.390625 351.0625 L 49.074219 269.238281 L 49.074219 105.914062 L 187.390625 24.085938 L 325.707031 105.914062 L 325.707031 269.238281 Z M 64.878906 260.214844 L 187.390625 332.691406 L 309.898438 260.214844 L 309.898438 114.933594 L 187.390625 42.460938 L 64.878906 114.933594 Z M 64.878906 260.214844 " fill-opacity="1" fill-rule="nonzero"/><g clip-path="url(#id1)"><path fill="rgb(100%, 25.099182%, 50.588989%)" d="M 215.054688 37.230469 C 215.054688 38.136719 215.007812 39.042969 214.921875 39.945312 C 214.832031 40.847656 214.699219 41.746094 214.523438 42.632812 C 214.34375 43.523438 214.125 44.402344 213.863281 45.269531 C 213.597656 46.136719 213.292969 46.992188 212.949219 47.828125 C 212.601562 48.667969 212.214844 49.484375 211.789062 50.285156 C 211.359375 51.085938 210.894531 51.863281 210.390625 52.617188 C 209.886719 53.371094 209.347656 54.097656 208.773438 54.800781 C 208.199219 55.5 207.59375 56.171875 206.953125 56.8125 C 206.3125 57.457031 205.640625 58.0625 204.941406 58.640625 C 204.238281 59.214844 203.511719 59.753906 202.757812 60.257812 C 202.007812 60.761719 201.230469 61.226562 200.429688 61.65625 C 199.632812 62.082031 198.8125 62.472656 197.976562 62.816406 C 197.140625 63.164062 196.289062 63.46875 195.421875 63.734375 C 194.554688 63.996094 193.675781 64.21875 192.789062 64.394531 C 191.898438 64.570312 191.003906 64.703125 190.101562 64.792969 C 189.199219 64.882812 188.296875 64.925781 187.390625 64.925781 C 186.484375 64.925781 185.582031 64.882812 184.679688 64.792969 C 183.777344 64.703125 182.882812 64.570312 181.992188 64.394531 C 181.105469 64.21875 180.226562 63.996094 179.359375 63.734375 C 178.492188 63.46875 177.640625 63.164062 176.804688 62.816406 C 175.96875 62.472656 175.148438 62.082031 174.351562 61.65625 C 173.550781 61.226562 172.773438 60.761719 172.019531 60.257812 C 171.269531 59.753906 170.542969 59.214844 169.839844 58.640625 C 169.140625 58.0625 168.46875 57.457031 167.828125 56.8125 C 167.1875 56.171875 166.582031 55.5 166.007812 54.800781 C 165.429688 54.097656 164.890625 53.371094 164.390625 52.617188 C 163.886719 51.863281 163.421875 51.085938 162.992188 50.285156 C 162.566406 49.484375 162.179688 48.667969 161.832031 47.828125 C 161.484375 46.992188 161.179688 46.136719 160.917969 45.269531 C 160.65625 44.402344 160.433594 43.523438 160.257812 42.632812 C 160.082031 41.746094 159.949219 40.847656 159.859375 39.945312 C 159.769531 39.042969 159.726562 38.136719 159.726562 37.230469 C 159.726562 36.324219 159.769531 35.417969 159.859375 34.515625 C 159.949219 33.613281 160.082031 32.71875 160.257812 31.828125 C 160.433594 30.9375 160.65625 30.058594 160.917969 29.191406 C 161.179688 28.324219 161.484375 27.46875 161.832031 26.632812 C 162.179688 25.792969 162.566406 24.976562 162.992188 24.175781 C 163.421875 23.375 163.886719 22.597656 164.390625 21.84375 C 164.890625 21.089844 165.429688 20.363281 166.007812 19.660156 C 166.582031 18.960938 167.1875 18.289062 167.828125 17.648438 C 168.46875 17.007812 169.140625 16.398438 169.839844 15.820312 C 170.542969 15.246094 171.269531 14.707031 172.019531 14.203125 C 172.773438 13.699219 173.550781 13.234375 174.351562 12.804688 C 175.148438 12.378906 175.96875 11.992188 176.804688 11.644531 C 177.640625 11.296875 178.492188 10.992188 179.359375 10.726562 C 180.226562 10.464844 181.105469 10.246094 181.992188 10.066406 C 182.882812 9.890625 183.777344 9.757812 184.679688 9.667969 C 185.582031 9.582031 186.484375 9.535156 187.390625 9.535156 C 188.296875 9.535156 189.199219 9.582031 190.101562 9.667969 C 191.003906 9.757812 191.898438 9.890625 192.789062 10.066406 C 193.675781 10.246094 194.554688 10.464844 195.421875 10.726562 C 196.289062 10.992188 197.140625 11.296875 197.976562 11.644531 C 198.8125 11.992188 199.632812 12.378906 200.429688 12.804688 C 201.230469 13.234375 202.007812 13.699219 202.757812 14.203125 C 203.511719 14.707031 204.238281 15.246094 204.941406 15.820312 C 205.640625 16.398438 206.3125 17.007812 206.953125 17.648438 C 207.59375 18.289062 208.199219 18.960938 208.773438 19.660156 C 209.347656 20.363281 209.886719 21.089844 210.390625 21.84375 C 210.894531 22.597656 211.359375 23.375 211.789062 24.175781 C 212.214844 24.976562 212.601562 25.792969 212.949219 26.632812 C 213.292969 27.46875 213.597656 28.324219 213.863281 29.191406 C 214.125 30.058594 214.34375 30.9375 214.523438 31.828125 C 214.699219 32.71875 214.832031 33.613281 214.921875 34.515625 C 215.007812 35.417969 215.054688 36.324219 215.054688 37.230469 Z M 215.054688 37.230469 " fill-opacity="1" fill-rule="nonzero"/></g><g clip-path="url(#id2)"><path fill="rgb(100%, 25.099182%, 50.588989%)" d="M 215.054688 337.921875 C 215.054688 338.828125 215.007812 339.734375 214.921875 340.636719 C 214.832031 341.539062 214.699219 342.433594 214.523438 343.324219 C 214.34375 344.214844 214.125 345.09375 213.863281 345.960938 C 213.597656 346.828125 213.292969 347.679688 212.949219 348.519531 C 212.601562 349.359375 212.214844 350.175781 211.789062 350.976562 C 211.359375 351.777344 210.894531 352.554688 210.390625 353.308594 C 209.886719 354.0625 209.347656 354.789062 208.773438 355.492188 C 208.199219 356.191406 207.59375 356.863281 206.953125 357.503906 C 206.3125 358.144531 205.640625 358.753906 204.941406 359.328125 C 204.238281 359.90625 203.511719 360.445312 202.757812 360.949219 C 202.007812 361.453125 201.230469 361.917969 200.429688 362.347656 C 199.632812 362.773438 198.8125 363.160156 197.976562 363.507812 C 197.140625 363.855469 196.289062 364.160156 195.421875 364.421875 C 194.554688 364.6875 193.675781 364.90625 192.789062 365.082031 C 191.898438 365.261719 191.003906 365.394531 190.101562 365.484375 C 189.199219 365.570312 188.296875 365.617188 187.390625 365.617188 C 186.484375 365.617188 185.582031 365.570312 184.679688 365.484375 C 183.777344 365.394531 182.882812 365.261719 181.992188 365.082031 C 181.105469 364.90625 180.226562 364.6875 179.359375 364.421875 C 178.492188 364.160156 177.640625 363.855469 176.804688 363.507812 C 175.96875 363.160156 175.148438 362.773438 174.351562 362.347656 C 173.550781 361.917969 172.773438 361.453125 172.019531 360.949219 C 171.269531 360.445312 170.542969 359.90625 169.839844 359.328125 C 169.140625 358.753906 168.46875 358.144531 167.828125 357.503906 C 167.1875 356.863281 166.582031 356.191406 166.007812 355.492188 C 165.429688 354.789062 164.890625 354.0625 164.390625 353.308594 C 163.886719 352.554688 163.421875 351.777344 162.992188 350.976562 C 162.566406 350.175781 162.179688 349.359375 161.832031 348.519531 C 161.484375 347.679688 161.179688 346.828125 160.917969 345.960938 C 160.65625 345.09375 160.433594 344.214844 160.257812 343.324219 C 160.082031 342.433594 159.949219 341.539062 159.859375 340.636719 C 159.769531 339.734375 159.726562 338.828125 159.726562 337.921875 C 159.726562 337.015625 159.769531 336.109375 159.859375 335.207031 C 159.949219 334.304688 160.082031 333.40625 160.257812 332.519531 C 160.433594 331.628906 160.65625 330.75 160.917969 329.882812 C 161.179688 329.011719 161.484375 328.160156 161.832031 327.324219 C 162.179688 326.484375 162.566406 325.664062 162.992188 324.867188 C 163.421875 324.066406 163.886719 323.289062 164.390625 322.535156 C 164.890625 321.78125 165.429688 321.050781 166.007812 320.351562 C 166.582031 319.648438 167.1875 318.980469 167.828125 318.335938 C 168.46875 317.695312 169.140625 317.085938 169.839844 316.511719 C 170.542969 315.9375 171.269531 315.398438 172.019531 314.894531 C 172.773438 314.390625 173.550781 313.921875 174.351562 313.496094 C 175.148438 313.070312 175.96875 312.679688 176.804688 312.335938 C 177.640625 311.988281 178.492188 311.683594 179.359375 311.417969 C 180.226562 311.15625 181.105469 310.933594 181.992188 310.757812 C 182.882812 310.582031 183.777344 310.449219 184.679688 310.359375 C 185.582031 310.269531 186.484375 310.226562 187.390625 310.226562 C 188.296875 310.226562 189.199219 310.269531 190.101562 310.359375 C 191.003906 310.449219 191.898438 310.582031 192.789062 310.757812 C 193.675781 310.933594 194.554688 311.15625 195.421875 311.417969 C 196.289062 311.683594 197.140625 311.988281 197.976562 312.335938 C 198.8125 312.679688 199.632812 313.070312 200.429688 313.496094 C 201.230469 313.921875 202.007812 314.390625 202.757812 314.894531 C 203.511719 315.398438 204.238281 315.9375 204.941406 316.511719 C 205.640625 317.085938 206.3125 317.695312 206.953125 318.335938 C 207.59375 318.980469 208.199219 319.648438 208.773438 320.351562 C 209.347656 321.050781 209.886719 321.78125 210.390625 322.535156 C 210.894531 323.289062 211.359375 324.066406 211.789062 324.867188 C 212.214844 325.664062 212.601562 326.484375 212.949219 327.324219 C 213.292969 328.160156 213.597656 329.011719 213.863281 329.882812 C 214.125 330.75 214.34375 331.628906 214.523438 332.519531 C 214.699219 333.40625 214.832031 334.304688 214.921875 335.207031 C 215.007812 336.109375 215.054688 337.015625 215.054688 337.921875 Z M 215.054688 337.921875 " fill-opacity="1" fill-rule="nonzero"/></g><g clip-path="url(#id3)"><path fill="rgb(100%, 25.099182%, 50.588989%)" d="M 88.59375 258.792969 C 88.59375 259.699219 88.546875 260.605469 88.457031 261.507812 C 88.371094 262.410156 88.238281 263.304688 88.0625 264.195312 C 87.882812 265.085938 87.664062 265.964844 87.402344 266.832031 C 87.136719 267.699219 86.832031 268.550781 86.488281 269.390625 C 86.140625 270.226562 85.753906 271.046875 85.324219 271.847656 C 84.898438 272.648438 84.433594 273.425781 83.929688 274.179688 C 83.425781 274.933594 82.886719 275.660156 82.3125 276.363281 C 81.738281 277.0625 81.128906 277.734375 80.488281 278.375 C 79.847656 279.015625 79.179688 279.625 78.476562 280.199219 C 77.777344 280.777344 77.050781 281.316406 76.296875 281.820312 C 75.542969 282.324219 74.769531 282.789062 73.96875 283.21875 C 73.171875 283.644531 72.351562 284.03125 71.515625 284.378906 C 70.679688 284.726562 69.824219 285.03125 68.960938 285.292969 C 68.09375 285.558594 67.214844 285.777344 66.324219 285.953125 C 65.4375 286.132812 64.542969 286.265625 63.640625 286.355469 C 62.738281 286.441406 61.835938 286.488281 60.929688 286.488281 C 60.023438 286.488281 59.117188 286.441406 58.21875 286.355469 C 57.316406 286.265625 56.421875 286.132812 55.53125 285.953125 C 54.644531 285.777344 53.765625 285.558594 52.898438 285.292969 C 52.03125 285.03125 51.179688 284.726562 50.34375 284.378906 C 49.503906 284.03125 48.6875 283.644531 47.886719 283.21875 C 47.089844 282.789062 46.3125 282.324219 45.558594 281.820312 C 44.804688 281.316406 44.078125 280.777344 43.378906 280.199219 C 42.679688 279.625 42.007812 279.015625 41.367188 278.375 C 40.726562 277.734375 40.121094 277.0625 39.542969 276.363281 C 38.96875 275.660156 38.429688 274.933594 37.925781 274.179688 C 37.425781 273.425781 36.957031 272.648438 36.53125 271.847656 C 36.105469 271.046875 35.71875 270.226562 35.371094 269.390625 C 35.023438 268.550781 34.71875 267.699219 34.457031 266.832031 C 34.195312 265.964844 33.972656 265.085938 33.796875 264.195312 C 33.621094 263.304688 33.488281 262.410156 33.398438 261.507812 C 33.308594 260.605469 33.265625 259.699219 33.265625 258.792969 C 33.265625 257.886719 33.308594 256.980469 33.398438 256.078125 C 33.488281 255.175781 33.621094 254.277344 33.796875 253.390625 C 33.972656 252.5 34.195312 251.621094 34.457031 250.753906 C 34.71875 249.882812 35.023438 249.03125 35.371094 248.195312 C 35.71875 247.355469 36.105469 246.535156 36.53125 245.738281 C 36.957031 244.9375 37.425781 244.160156 37.925781 243.40625 C 38.429688 242.652344 38.96875 241.921875 39.542969 241.222656 C 40.121094 240.519531 40.726562 239.851562 41.367188 239.207031 C 42.007812 238.566406 42.679688 237.957031 43.378906 237.382812 C 44.078125 236.808594 44.804688 236.269531 45.558594 235.765625 C 46.3125 235.261719 47.089844 234.792969 47.886719 234.367188 C 48.6875 233.941406 49.503906 233.550781 50.34375 233.203125 C 51.179688 232.859375 52.03125 232.550781 52.898438 232.289062 C 53.765625 232.027344 54.644531 231.804688 55.53125 231.628906 C 56.421875 231.453125 57.316406 231.320312 58.21875 231.230469 C 59.117188 231.140625 60.023438 231.097656 60.929688 231.097656 C 61.835938 231.097656 62.738281 231.140625 63.640625 231.230469 C 64.542969 231.320312 65.4375 231.453125 66.324219 231.628906 C 67.214844 231.804688 68.09375 232.027344 68.960938 232.289062 C 69.824219 232.550781 70.679688 232.859375 71.515625 233.203125 C 72.351562 233.550781 73.171875 233.941406 73.96875 234.367188 C 74.769531 234.792969 75.542969 235.261719 76.296875 235.765625 C 77.050781 236.269531 77.777344 236.808594 78.476562 237.382812 C 79.179688 237.957031 79.847656 238.566406 80.488281 239.207031 C 81.128906 239.851562 81.738281 240.519531 82.3125 241.222656 C 82.886719 241.921875 83.425781 242.652344 83.929688 243.40625 C 84.433594 244.160156 84.898438 244.9375 85.324219 245.738281 C 85.753906 246.535156 86.140625 247.355469 86.488281 248.195312 C 86.832031 249.03125 87.136719 249.882812 87.402344 250.753906 C 87.664062 251.621094 87.882812 252.5 88.0625 253.390625 C 88.238281 254.277344 88.371094 255.175781 88.457031 256.078125 C 88.546875 256.980469 88.59375 257.886719 88.59375 258.792969 Z M 88.59375 258.792969 " fill-opacity="1" fill-rule="nonzero"/></g><g clip-path="url(#id4)"><path fill="rgb(100%, 25.099182%, 50.588989%)" d="M 341.515625 258.792969 C 341.515625 259.699219 341.472656 260.605469 341.382812 261.507812 C 341.292969 262.410156 341.160156 263.304688 340.984375 264.195312 C 340.808594 265.085938 340.585938 265.964844 340.324219 266.832031 C 340.0625 267.699219 339.757812 268.550781 339.410156 269.390625 C 339.0625 270.226562 338.675781 271.046875 338.25 271.847656 C 337.820312 272.648438 337.355469 273.425781 336.851562 274.179688 C 336.351562 274.933594 335.8125 275.660156 335.234375 276.363281 C 334.660156 277.0625 334.054688 277.734375 333.414062 278.375 C 332.773438 279.015625 332.101562 279.625 331.402344 280.199219 C 330.699219 280.777344 329.972656 281.316406 329.222656 281.820312 C 328.46875 282.324219 327.691406 282.789062 326.890625 283.21875 C 326.09375 283.644531 325.273438 284.03125 324.4375 284.378906 C 323.601562 284.726562 322.75 285.03125 321.882812 285.292969 C 321.015625 285.558594 320.136719 285.777344 319.25 285.953125 C 318.359375 286.132812 317.464844 286.265625 316.5625 286.355469 C 315.660156 286.441406 314.757812 286.488281 313.851562 286.488281 C 312.945312 286.488281 312.042969 286.441406 311.140625 286.355469 C 310.238281 286.265625 309.34375 286.132812 308.453125 285.953125 C 307.566406 285.777344 306.6875 285.558594 305.820312 285.292969 C 304.953125 285.03125 304.101562 284.726562 303.265625 284.378906 C 302.429688 284.03125 301.609375 283.644531 300.8125 283.21875 C 300.011719 282.789062 299.234375 282.324219 298.484375 281.820312 C 297.730469 281.316406 297.003906 280.777344 296.300781 280.199219 C 295.601562 279.625 294.929688 279.015625 294.289062 278.375 C 293.648438 277.734375 293.042969 277.0625 292.46875 276.363281 C 291.894531 275.660156 291.355469 274.933594 290.851562 274.179688 C 290.347656 273.425781 289.882812 272.648438 289.453125 271.847656 C 289.027344 271.046875 288.640625 270.226562 288.292969 269.390625 C 287.949219 268.550781 287.640625 267.699219 287.378906 266.832031 C 287.117188 265.964844 286.898438 265.085938 286.71875 264.195312 C 286.542969 263.304688 286.410156 262.410156 286.320312 261.507812 C 286.234375 260.605469 286.1875 259.699219 286.1875 258.792969 C 286.1875 257.886719 286.234375 256.980469 286.320312 256.078125 C 286.410156 255.175781 286.542969 254.277344 286.71875 253.390625 C 286.898438 252.5 287.117188 251.621094 287.378906 250.753906 C 287.640625 249.882812 287.949219 249.03125 288.292969 248.195312 C 288.640625 247.355469 289.027344 246.535156 289.453125 245.738281 C 289.882812 244.9375 290.347656 244.160156 290.851562 243.40625 C 291.355469 242.652344 291.894531 241.921875 292.46875 241.222656 C 293.042969 240.519531 293.648438 239.851562 294.289062 239.207031 C 294.929688 238.566406 295.601562 237.957031 296.300781 237.382812 C 297.003906 236.808594 297.730469 236.269531 298.484375 235.765625 C 299.234375 235.261719 300.011719 234.792969 300.8125 234.367188 C 301.609375 233.941406 302.429688 233.550781 303.265625 233.203125 C 304.101562 232.859375 304.953125 232.550781 305.820312 232.289062 C 306.6875 232.027344 307.566406 231.804688 308.453125 231.628906 C 309.34375 231.453125 310.238281 231.320312 311.140625 231.230469 C 312.042969 231.140625 312.945312 231.097656 313.851562 231.097656 C 314.757812 231.097656 315.660156 231.140625 316.5625 231.230469 C 317.464844 231.320312 318.359375 231.453125 319.25 231.628906 C 320.136719 231.804688 321.015625 232.027344 321.882812 232.289062 C 322.75 232.550781 323.601562 232.859375 324.4375 233.203125 C 325.273438 233.550781 326.09375 233.941406 326.890625 234.367188 C 327.691406 234.792969 328.46875 235.261719 329.222656 235.765625 C 329.972656 236.269531 330.699219 236.808594 331.402344 237.382812 C 332.101562 237.957031 332.773438 238.566406 333.414062 239.207031 C 334.054688 239.851562 334.660156 240.519531 335.234375 241.222656 C 335.8125 241.921875 336.351562 242.652344 336.851562 243.40625 C 337.355469 244.160156 337.820312 244.9375 338.25 245.738281 C 338.675781 246.535156 339.0625 247.355469 339.410156 248.195312 C 339.757812 249.03125 340.0625 249.882812 340.324219 250.753906 C 340.585938 251.621094 340.808594 252.5 340.984375 253.390625 C 341.160156 254.277344 341.292969 255.175781 341.382812 256.078125 C 341.472656 256.980469 341.515625 257.886719 341.515625 258.792969 Z M 341.515625 258.792969 " fill-opacity="1" fill-rule="nonzero"/></g><g clip-path="url(#id5)"><path fill="rgb(100%, 25.099182%, 50.588989%)" d="M 88.59375 116.359375 C 88.59375 117.265625 88.546875 118.171875 88.457031 119.074219 C 88.371094 119.976562 88.238281 120.875 88.0625 121.761719 C 87.882812 122.652344 87.664062 123.53125 87.402344 124.398438 C 87.136719 125.265625 86.832031 126.121094 86.488281 126.957031 C 86.140625 127.796875 85.753906 128.617188 85.324219 129.414062 C 84.898438 130.214844 84.433594 130.992188 83.929688 131.746094 C 83.425781 132.5 82.886719 133.226562 82.3125 133.929688 C 81.738281 134.628906 81.128906 135.300781 80.488281 135.941406 C 79.847656 136.585938 79.179688 137.191406 78.476562 137.769531 C 77.777344 138.34375 77.050781 138.882812 76.296875 139.386719 C 75.542969 139.890625 74.769531 140.355469 73.96875 140.785156 C 73.171875 141.210938 72.351562 141.601562 71.515625 141.945312 C 70.679688 142.292969 69.824219 142.597656 68.960938 142.863281 C 68.09375 143.125 67.214844 143.347656 66.324219 143.523438 C 65.4375 143.699219 64.542969 143.832031 63.640625 143.921875 C 62.738281 144.011719 61.835938 144.054688 60.929688 144.054688 C 60.023438 144.054688 59.117188 144.011719 58.21875 143.921875 C 57.316406 143.832031 56.421875 143.699219 55.53125 143.523438 C 54.644531 143.347656 53.765625 143.125 52.898438 142.863281 C 52.03125 142.597656 51.179688 142.292969 50.34375 141.945312 C 49.503906 141.601562 48.6875 141.210938 47.886719 140.785156 C 47.089844 140.355469 46.3125 139.890625 45.558594 139.386719 C 44.804688 138.882812 44.078125 138.34375 43.378906 137.769531 C 42.679688 137.191406 42.007812 136.585938 41.367188 135.941406 C 40.726562 135.300781 40.121094 134.628906 39.542969 133.929688 C 38.96875 133.226562 38.429688 132.5 37.925781 131.746094 C 37.425781 130.992188 36.957031 130.214844 36.53125 129.414062 C 36.105469 128.617188 35.71875 127.796875 35.371094 126.957031 C 35.023438 126.121094 34.71875 125.265625 34.457031 124.398438 C 34.195312 123.53125 33.972656 122.652344 33.796875 121.761719 C 33.621094 120.875 33.488281 119.976562 33.398438 119.074219 C 33.308594 118.171875 33.265625 117.265625 33.265625 116.359375 C 33.265625 115.453125 33.308594 114.546875 33.398438 113.644531 C 33.488281 112.742188 33.621094 111.847656 33.796875 110.957031 C 33.972656 110.066406 34.195312 109.1875 34.457031 108.320312 C 34.71875 107.453125 35.023438 106.597656 35.371094 105.761719 C 35.71875 104.921875 36.105469 104.105469 36.53125 103.304688 C 36.957031 102.503906 37.425781 101.726562 37.925781 100.972656 C 38.429688 100.21875 38.96875 99.492188 39.542969 98.789062 C 40.121094 98.089844 40.726562 97.417969 41.367188 96.777344 C 42.007812 96.136719 42.679688 95.527344 43.378906 94.953125 C 44.078125 94.375 44.804688 93.835938 45.558594 93.332031 C 46.3125 92.828125 47.089844 92.363281 47.886719 91.933594 C 48.6875 91.507812 49.503906 91.121094 50.34375 90.773438 C 51.179688 90.425781 52.03125 90.121094 52.898438 89.855469 C 53.765625 89.59375 54.644531 89.375 55.53125 89.195312 C 56.421875 89.019531 57.316406 88.886719 58.21875 88.796875 C 59.117188 88.710938 60.023438 88.664062 60.929688 88.664062 C 61.835938 88.664062 62.738281 88.710938 63.640625 88.796875 C 64.542969 88.886719 65.4375 89.019531 66.324219 89.195312 C 67.214844 89.375 68.09375 89.59375 68.960938 89.855469 C 69.824219 90.121094 70.679688 90.425781 71.515625 90.773438 C 72.351562 91.121094 73.171875 91.507812 73.96875 91.933594 C 74.769531 92.363281 75.542969 92.828125 76.296875 93.332031 C 77.050781 93.835938 77.777344 94.375 78.476562 94.953125 C 79.179688 95.527344 79.847656 96.136719 80.488281 96.777344 C 81.128906 97.417969 81.738281 98.089844 82.3125 98.789062 C 82.886719 99.492188 83.425781 100.21875 83.929688 100.972656 C 84.433594 101.726562 84.898438 102.503906 85.324219 103.304688 C 85.753906 104.105469 86.140625 104.921875 86.488281 105.761719 C 86.832031 106.597656 87.136719 107.453125 87.402344 108.320312 C 87.664062 109.1875 87.882812 110.066406 88.0625 110.957031 C 88.238281 111.847656 88.371094 112.742188 88.457031 113.644531 C 88.546875 114.546875 88.59375 115.453125 88.59375 116.359375 Z M 88.59375 116.359375 " fill-opacity="1" fill-rule="nonzero"/></g><g clip-path="url(#id6)"><path fill="rgb(100%, 25.099182%, 50.588989%)" d="M 341.515625 116.359375 C 341.515625 117.265625 341.472656 118.171875 341.382812 119.074219 C 341.292969 119.976562 341.160156 120.875 340.984375 121.761719 C 340.808594 122.652344 340.585938 123.53125 340.324219 124.398438 C 340.0625 125.265625 339.757812 126.121094 339.410156 126.957031 C 339.0625 127.796875 338.675781 128.617188 338.25 129.414062 C 337.820312 130.214844 337.355469 130.992188 336.851562 131.746094 C 336.351562 132.5 335.8125 133.226562 335.234375 133.929688 C 334.660156 134.628906 334.054688 135.300781 333.414062 135.941406 C 332.773438 136.585938 332.101562 137.191406 331.402344 137.769531 C 330.699219 138.34375 329.972656 138.882812 329.222656 139.386719 C 328.46875 139.890625 327.691406 140.355469 326.890625 140.785156 C 326.09375 141.210938 325.273438 141.601562 324.4375 141.945312 C 323.601562 142.292969 322.75 142.597656 321.882812 142.863281 C 321.015625 143.125 320.136719 143.347656 319.25 143.523438 C 318.359375 143.699219 317.464844 143.832031 316.5625 143.921875 C 315.660156 144.011719 314.757812 144.054688 313.851562 144.054688 C 312.945312 144.054688 312.042969 144.011719 311.140625 143.921875 C 310.238281 143.832031 309.34375 143.699219 308.453125 143.523438 C 307.566406 143.347656 306.6875 143.125 305.820312 142.863281 C 304.953125 142.597656 304.101562 142.292969 303.265625 141.945312 C 302.429688 141.601562 301.609375 141.210938 300.8125 140.785156 C 300.011719 140.355469 299.234375 139.890625 298.484375 139.386719 C 297.730469 138.882812 297.003906 138.34375 296.300781 137.769531 C 295.601562 137.191406 294.929688 136.585938 294.289062 135.941406 C 293.648438 135.300781 293.042969 134.628906 292.46875 133.929688 C 291.894531 133.226562 291.355469 132.5 290.851562 131.746094 C 290.347656 130.992188 289.882812 130.214844 289.453125 129.414062 C 289.027344 128.617188 288.640625 127.796875 288.292969 126.957031 C 287.949219 126.121094 287.640625 125.265625 287.378906 124.398438 C 287.117188 123.53125 286.898438 122.652344 286.71875 121.761719 C 286.542969 120.875 286.410156 119.976562 286.320312 119.074219 C 286.234375 118.171875 286.1875 117.265625 286.1875 116.359375 C 286.1875 115.453125 286.234375 114.546875 286.320312 113.644531 C 286.410156 112.742188 286.542969 111.847656 286.71875 110.957031 C 286.898438 110.066406 287.117188 109.1875 287.378906 108.320312 C 287.640625 107.453125 287.949219 106.597656 288.292969 105.761719 C 288.640625 104.921875 289.027344 104.105469 289.453125 103.304688 C 289.882812 102.503906 290.347656 101.726562 290.851562 100.972656 C 291.355469 100.21875 291.894531 99.492188 292.46875 98.789062 C 293.042969 98.089844 293.648438 97.417969 294.289062 96.777344 C 294.929688 96.136719 295.601562 95.527344 296.300781 94.953125 C 297.003906 94.375 297.730469 93.835938 298.484375 93.332031 C 299.234375 92.828125 300.011719 92.363281 300.8125 91.933594 C 301.609375 91.507812 302.429688 91.121094 303.265625 90.773438 C 304.101562 90.425781 304.953125 90.121094 305.820312 89.855469 C 306.6875 89.59375 307.566406 89.375 308.453125 89.195312 C 309.34375 89.019531 310.238281 88.886719 311.140625 88.796875 C 312.042969 88.710938 312.945312 88.664062 313.851562 88.664062 C 314.757812 88.664062 315.660156 88.710938 316.5625 88.796875 C 317.464844 88.886719 318.359375 89.019531 319.25 89.195312 C 320.136719 89.375 321.015625 89.59375 321.882812 89.855469 C 322.75 90.121094 323.601562 90.425781 324.4375 90.773438 C 325.273438 91.121094 326.09375 91.507812 326.890625 91.933594 C 327.691406 92.363281 328.46875 92.828125 329.222656 93.332031 C 329.972656 93.835938 330.699219 94.375 331.402344 94.953125 C 332.101562 95.527344 332.773438 96.136719 333.414062 96.777344 C 334.054688 97.417969 334.660156 98.089844 335.234375 98.789062 C 335.8125 99.492188 336.351562 100.21875 336.851562 100.972656 C 337.355469 101.726562 337.820312 102.503906 338.25 103.304688 C 338.675781 104.105469 339.0625 104.921875 339.410156 105.761719 C 339.757812 106.597656 340.0625 107.453125 340.324219 108.320312 C 340.585938 109.1875 340.808594 110.066406 340.984375 110.957031 C 341.160156 111.847656 341.292969 112.742188 341.382812 113.644531 C 341.472656 114.546875 341.515625 115.453125 341.515625 116.359375 Z M 341.515625 116.359375 " fill-opacity="1" fill-rule="nonzero"/></g><path fill="rgb(100%, 25.099182%, 50.588989%)" d="M 331.398438 270.660156 L 43.382812 270.660156 L 187.390625 17.273438 Z M 70.570312 254.835938 L 304.210938 254.835938 L 187.390625 49.273438 Z M 70.570312 254.835938 " fill-opacity="1" fill-rule="nonzero"/></svg>