<svg xmlns="http://www.w3.org/2000/svg" xmlns:xlink="http://www.w3.org/1999/xlink" width="500" zoomAndPan="magnify" viewBox="0 0 375 374.999991" height="500" preserveAspectRatio="xMidYMid meet" version="1.0"><defs><clipPath id="id1"><path d="M 52.660156 7.59375 L 333 7.59375 L 333 367.59375 L 52.660156 367.59375 Z M 52.660156 7.59375 " clip-rule="nonzero"/></clipPath></defs><g clip-path="url(#id1)"><path fill="rgb(54.899597%, 32.159424%, 100%)" d="M 292.964844 7.59375 L 92.851562 7.59375 C 70.808594 7.59375 52.828125 25.5625 52.828125 47.59375 L 52.828125 327.59375 C 52.828125 349.625 70.808594 367.59375 92.851562 367.59375 L 292.964844 367.59375 C 315.007812 367.59375 332.988281 349.625 332.988281 327.59375 L 332.988281 47.59375 C 332.988281 25.5625 315.007812 7.59375 292.964844 7.59375 Z M 112.863281 307.59375 L 112.863281 247.59375 L 152.886719 277.59375 Z M 272.953125 307.59375 L 232.929688 307.59375 C 232.929688 307.59375 232.929688 245.5625 232.929688 207.046875 C 232.929688 195.5625 222.066406 162.984375 113.097656 207.59375 C 112.863281 208.296875 112.863281 67.90625 112.863281 67.90625 L 152.886719 67.59375 L 152.886719 154.9375 C 152.886719 154.9375 272.953125 119.859375 272.953125 207.59375 Z M 253.097656 107.59375 C 241.058594 107.59375 218.9375 107.59375 212.917969 107.59375 C 225.582031 88.296875 235.511719 67.59375 235.511719 67.59375 L 273.1875 67.59375 C 273.1875 67.59375 268.027344 84.15625 253.097656 107.59375 Z M 253.097656 107.59375 " fill-opacity="1" fill-rule="nonzero"/></g></svg>