<svg xmlns="http://www.w3.org/2000/svg" xmlns:xlink="http://www.w3.org/1999/xlink" width="500" zoomAndPan="magnify" viewBox="0 0 375 374.999991" height="500" preserveAspectRatio="xMidYMid meet" version="1.0"><defs><clipPath id="id1"><path d="M 37.5 26 L 330.75 26 L 330.75 360 L 37.5 360 Z M 37.5 26 " clip-rule="nonzero"/></clipPath></defs><g clip-path="url(#id1)"><path fill="rgb(89.408875%, 30.198669%, 14.898682%)" d="M 64.121094 326.574219 L 37.417969 26.515625 L 330.832031 26.515625 L 304.109375 326.535156 L 183.9375 359.894531 Z M 64.121094 326.574219 " fill-opacity="1" fill-rule="nonzero"/></g><path fill="rgb(94.509888%, 39.608765%, 16.079712%)" d="M 281.21875 307.425781 L 304.066406 51.050781 L 184.125 51.050781 L 184.125 334.398438 Z M 281.21875 307.425781 " fill-opacity="1" fill-rule="nonzero"/><path fill="rgb(92.158508%, 92.158508%, 92.158508%)" d="M 184 87.847656 L 92.011719 87.847656 L 101.921875 199.136719 L 184.125 199.136719 L 184.125 162.339844 L 135.519531 162.339844 L 132.160156 124.65625 L 184.125 124.65625 L 184.125 87.847656 Z M 184.125 257.792969 L 183.96875 257.835938 L 143.058594 246.769531 L 140.460938 217.421875 L 103.5625 217.421875 L 108.710938 275.203125 L 183.957031 296.039062 L 184.125 295.988281 Z M 184.125 257.792969 " fill-opacity="1" fill-rule="nonzero"/><path fill="rgb(100%, 100%, 100%)" d="M 184 199.136719 L 229.234375 199.136719 L 225.074219 246.855469 L 184.105469 257.929688 L 184.105469 296.214844 L 259.414062 275.304688 L 269.5 162.320312 L 184.125 162.320312 Z M 275.136719 97.726562 L 276.011719 87.847656 L 183.980469 87.847656 L 183.980469 124.648438 L 272.703125 124.648438 L 273.429688 116.375 Z M 275.136719 97.726562 " fill-opacity="1" fill-rule="nonzero"/></svg>