<svg xmlns="http://www.w3.org/2000/svg" xmlns:xlink="http://www.w3.org/1999/xlink" width="500" zoomAndPan="magnify" viewBox="0 0 375 374.999991" height="500" preserveAspectRatio="xMidYMid meet" version="1.0"><path fill="rgb(7.058716%, 39.99939%, 66.268921%)" d="M 30.578125 241.554688 C 30.929688 242.347656 31.328125 243.078125 31.753906 243.8125 C 31.953125 244.238281 32.226562 244.679688 32.46875 245.078125 C 32.867188 245.867188 33.292969 246.632812 33.703125 247.394531 L 36.097656 251.417969 C 36.539062 252.164062 36.964844 252.894531 37.46875 253.628906 C 38.308594 255.0625 39.296875 256.464844 40.167969 257.894531 C 40.5625 258.492188 40.929688 259.085938 41.371094 259.679688 C 43.046875 262.285156 44.574219 264.453125 46.203125 266.554688 C 47.363281 268.125 48.519531 269.664062 49.769531 271.203125 C 50.183594 271.785156 50.640625 272.363281 51.066406 272.941406 L 54.4375 277.027344 C 54.847656 277.5 55.257812 278.046875 55.703125 278.535156 C 57.195312 280.335938 58.78125 282.074219 60.367188 283.839844 C 60.367188 283.871094 60.410156 283.902344 60.441406 283.949219 C 62.410156 286.417969 64.527344 288.613281 66.84375 290.5625 L 66.90625 290.625 C 68.125 291.875 69.34375 293.109375 70.640625 294.328125 L 72.179688 295.808594 C 73.871094 297.394531 75.5625 298.964844 77.347656 300.488281 C 77.378906 300.488281 77.394531 300.519531 77.421875 300.535156 L 78.292969 301.296875 C 79.847656 302.652344 81.417969 303.992188 83.019531 305.242188 L 84.921875 306.84375 C 86.21875 307.882812 87.5625 308.855469 88.886719 309.878906 L 90.960938 311.464844 C 92.378906 312.53125 93.886719 313.566406 95.335938 314.605469 C 95.867188 314.984375 96.402344 315.367188 96.953125 315.714844 L 97.394531 316.066406 L 101.675781 318.871094 L 103.507812 320.089844 C 105.746094 321.523438 107.972656 322.867188 110.199219 324.207031 C 110.839844 324.527344 111.480469 324.878906 112.074219 325.242188 C 113.71875 326.1875 115.425781 327.148438 117.089844 328.019531 C 118.003906 328.535156 118.949219 328.980469 119.894531 329.453125 C 121.035156 330.089844 122.226562 330.714844 123.445312 331.355469 C 123.78125 331.464844 124.054688 331.570312 124.328125 331.722656 L 124.390625 331.660156 C 124.894531 331.890625 125.367188 332.132812 125.855469 332.378906 C 127.683594 333.292969 129.589844 334.160156 131.570312 335.015625 C 131.9375 335.167969 132.332031 335.320312 132.730469 335.535156 C 134.921875 336.492188 137.117188 337.410156 139.390625 338.292969 C 139.910156 338.445312 140.457031 338.703125 140.992188 338.902344 C 143.046875 339.679688 145.167969 340.472656 147.269531 341.21875 L 148.035156 341.492188 C 150.367188 342.285156 152.667969 343.046875 155.046875 343.765625 C 155.59375 343.917969 156.160156 344.117188 156.738281 344.269531 C 159.160156 345 161.507812 345.867188 163.964844 346.328125 C 320.5625 374.726562 366.066406 252.636719 366.066406 252.636719 C 327.835938 302.179688 259.984375 315.242188 195.730469 300.703125 C 193.355469 300.152344 190.976562 299.390625 188.566406 298.6875 C 184.207031 297.421875 181.3125 296.507812 178.460938 295.503906 L 179.910156 295.945312 L 178.964844 295.578125 C 176.890625 294.878906 174.894531 294.101562 172.867188 293.324219 C 172.484375 293.15625 171.921875 292.941406 171.355469 292.742188 L 171.1875 292.699219 C 168.949219 291.796875 166.769531 290.882812 164.605469 289.921875 C 164.132812 289.769531 163.734375 289.558594 163.261719 289.375 C 159.269531 287.605469 157.453125 286.753906 155.640625 285.867188 L 157.742188 286.796875 C 157.179688 286.554688 156.675781 286.296875 156.128906 286.007812 C 154.695312 285.335938 153.261719 284.574219 151.859375 283.855469 C 150.546875 283.230469 149.617188 282.742188 148.703125 282.242188 L 149.007812 282.394531 C 147.285156 281.480469 145.5625 280.488281 143.828125 279.558594 C 143.308594 279.191406 142.714844 278.886719 142.117188 278.550781 C 138.828125 276.632812 136.644531 275.273438 134.464844 273.886719 L 135.425781 274.464844 C 134.695312 274.007812 134.101562 273.613281 133.535156 273.203125 L 133.628906 273.261719 C 131.753906 272.105469 130.257812 271.113281 128.8125 270.089844 C 128.292969 269.757812 127.820312 269.390625 127.285156 269.023438 C 125.335938 267.683594 123.871094 266.632812 122.4375 265.546875 L 122.804688 265.808594 C 122.164062 265.289062 121.480469 264.800781 120.792969 264.296875 C 119.453125 263.246094 118.09375 262.242188 116.753906 261.144531 L 114.953125 259.710938 C 113.019531 258.15625 111.402344 256.796875 109.816406 255.410156 C 109.664062 255.257812 109.496094 255.121094 109.3125 255 L 109.296875 254.984375 L 104.007812 250.183594 L 102.484375 248.75 C 101.234375 247.484375 99.953125 246.28125 98.671875 245.03125 L 97.195312 243.507812 C 95.609375 241.9375 94.085938 240.351562 92.578125 238.703125 L 92.484375 238.597656 L 92.226562 238.382812 C 90.609375 236.617188 89.039062 234.832031 87.453125 233.003906 C 87.042969 232.53125 86.660156 232.027344 86.234375 231.523438 L 82.773438 227.332031 C 81.570312 225.839844 79.878906 223.628906 78.203125 221.371094 L 77.589844 220.519531 C 41.953125 172.105469 29.054688 105.289062 57.578125 50.472656 L 32.394531 82.316406 C 0 128.644531 4.007812 188.886719 28.78125 238.078125 C 29.34375 239.285156 29.96875 240.410156 30.578125 241.554688 Z M 30.578125 241.554688 " fill-opacity="1" fill-rule="nonzero"/><path fill="rgb(0%, 0%, 0%)" d="M 139.679688 174.816406 C 139.617188 174.742188 139.574219 174.648438 139.511719 174.574219 C 139.464844 174.511719 139.421875 174.453125 139.375 174.390625 Z M 139.679688 174.816406 " fill-opacity="1" fill-rule="nonzero"/><path fill="rgb(7.058716%, 39.99939%, 66.268921%)" d="M 156.722656 194.816406 L 158.09375 196.1875 C 159.832031 197.867188 161.617188 199.496094 163.429688 201.128906 L 163.660156 201.328125 C 165.488281 202.941406 167.546875 204.632812 169.664062 206.28125 L 169.984375 206.523438 C 170.503906 206.875 170.945312 207.285156 171.449219 207.636719 C 173.582031 209.285156 175.730469 210.855469 177.972656 212.421875 L 178.203125 212.5625 C 179.144531 213.246094 180.152344 213.871094 181.21875 214.542969 C 181.644531 214.816406 182.132812 215.183594 182.589844 215.457031 C 184.207031 216.492188 185.792969 217.453125 187.421875 218.445312 C 187.683594 218.550781 187.910156 218.6875 188.15625 218.796875 C 189.527344 219.632812 191.019531 220.441406 192.453125 221.171875 C 192.957031 221.480469 193.445312 221.707031 193.964844 221.996094 C 194.984375 222.5 195.992188 223.035156 196.964844 223.550781 L 197.453125 223.765625 C 199.511719 224.769531 201.617188 225.714844 203.671875 226.644531 C 204.191406 226.84375 204.632812 227.011719 205.078125 227.226562 C 206.769531 227.957031 208.492188 228.660156 210.183594 229.296875 C 210.945312 229.558594 211.660156 229.863281 212.378906 230.089844 C 213.933594 230.671875 215.5625 231.203125 217.105469 231.738281 L 219.238281 232.421875 C 221.464844 233.109375 223.71875 234.007812 226.082031 234.375 C 347.011719 254.285156 375 161.644531 375 161.644531 C 349.800781 197.730469 301.035156 214.921875 249.070312 201.492188 C 245.914062 200.6875 243.628906 200.015625 241.355469 199.285156 L 242.226562 199.527344 C 241.492188 199.328125 240.855469 199.101562 240.152344 198.886719 C 238.566406 198.339844 236.9375 197.804688 235.394531 197.242188 L 233.203125 196.417969 C 231.492188 195.730469 229.757812 195.089844 228.09375 194.359375 C 227.578125 194.132812 227.105469 193.980469 226.707031 193.75 C 224.574219 192.789062 222.421875 191.84375 220.335938 190.839844 L 217.195312 189.207031 L 215.382812 188.292969 C 213.980469 187.5625 212.683594 186.796875 211.339844 186.019531 C 210.960938 185.839844 210.65625 185.671875 210.351562 185.472656 L 210.394531 185.488281 C 208.78125 184.480469 207.105469 183.507812 205.546875 182.484375 C 205.03125 182.195312 204.558594 181.84375 204.070312 181.539062 L 200.898438 179.480469 C 198.703125 177.957031 196.554688 176.328125 194.375 174.742188 C 193.886719 174.296875 193.414062 173.933594 192.941406 173.535156 C 170.089844 155.65625 152.074219 131.21875 143.519531 103.550781 C 134.511719 74.785156 136.492188 42.53125 152.058594 16.355469 L 132.925781 43.308594 C 109.4375 76.859375 110.761719 121.707031 129.054688 157.195312 C 132.394531 163.75 135.777344 169.285156 139.511719 174.558594 C 142.988281 179.527344 146.828125 185.351562 151.464844 189.34375 C 153.109375 191.21875 154.878906 193.003906 156.722656 194.816406 Z M 156.722656 194.816406 " fill-opacity="1" fill-rule="nonzero"/><path fill="rgb(0%, 0%, 0%)" d="M 46.28125 266.644531 L 46.21875 266.554688 L 46.113281 266.417969 Z M 46.28125 266.644531 " fill-opacity="1" fill-rule="nonzero"/><path fill="rgb(0%, 0%, 0%)" d="M 109.664062 255.304688 L 109.816406 255.410156 L 109.847656 255.457031 Z M 109.664062 255.304688 " fill-opacity="1" fill-rule="nonzero"/><path fill="rgb(7.058716%, 39.99939%, 66.268921%)" d="M 217.46875 14.132812 C 203.613281 34.359375 202.285156 59.480469 211.828125 81.785156 C 221.964844 105.472656 242.683594 124.070312 266.828125 132.882812 C 267.820312 133.261719 268.78125 133.582031 269.800781 133.949219 L 271.144531 134.359375 C 272.546875 134.800781 273.964844 135.320312 275.410156 135.640625 C 342.195312 148.460938 360.273438 101.523438 365.136719 94.617188 C 349.238281 117.332031 322.578125 122.789062 289.863281 114.878906 C 286.660156 114.085938 284.023438 113.246094 281.480469 112.285156 L 281.980469 112.453125 C 278.125 111.097656 275.015625 109.800781 271.980469 108.339844 L 272.5625 108.597656 C 266.3125 105.546875 260.945312 102.257812 255.960938 98.476562 C 226.722656 76.371094 208.644531 34.285156 227.730469 0 Z M 217.46875 14.132812 " fill-opacity="1" fill-rule="nonzero"/></svg>