<svg xmlns="http://www.w3.org/2000/svg" xmlns:xlink="http://www.w3.org/1999/xlink" width="500" zoomAndPan="magnify" viewBox="0 0 375 374.999991" height="500" preserveAspectRatio="xMidYMid meet" version="1.0"><rect x="-37.5" width="450" fill="rgb(0%, 0%, 0%)" y="-37.499999" height="449.999989" fill-opacity="1"/><path fill="rgb(100%, 100%, 100%)" d="M 210.597656 119.054688 L 210.316406 39.878906 L 166.164062 39.878906 L 166.449219 119.054688 L 188.523438 149.386719 Z M 166.449219 254.75 L 166.449219 334.207031 L 210.597656 334.207031 L 210.597656 254.75 L 188.523438 224.414062 Z M 166.449219 254.75 " fill-opacity="1" fill-rule="evenodd"/><path fill="rgb(0%, 94.898987%, 90.19928%)" d="M 210.597656 254.75 L 257.101562 318.945312 L 292.6875 293.039062 L 246.183594 228.84375 L 210.597656 217.351562 Z M 166.449219 119.054688 L 119.660156 54.855469 L 84.074219 80.761719 L 130.582031 144.910156 L 166.449219 156.402344 Z M 166.449219 119.054688 " fill-opacity="1" fill-rule="evenodd"/><path fill="rgb(0%, 72.549438%, 94.509888%)" d="M 130.582031 144.957031 L 55.269531 120.511719 L 41.714844 162.289062 L 117.023438 187.019531 L 152.609375 175.242188 Z M 224.109375 198.511719 L 246.183594 228.84375 L 321.496094 253.289062 L 335.050781 211.511719 L 259.738281 187.066406 Z M 224.109375 198.511719 " fill-opacity="1" fill-rule="evenodd"/><path fill="rgb(83.918762%, 22.749329%, 100%)" d="M 259.691406 187.066406 L 335.003906 162.339844 L 321.449219 120.558594 L 246.136719 145.003906 L 224.058594 175.335938 Z M 117.023438 187.066406 L 41.714844 211.511719 L 55.269531 253.289062 L 130.582031 228.84375 L 152.65625 198.511719 Z M 117.023438 187.066406 " fill-opacity="1" fill-rule="evenodd"/><path fill="rgb(98.429871%, 0.389099%, 35.688782%)" d="M 130.582031 228.84375 L 84.074219 293.039062 L 119.660156 318.945312 L 166.449219 254.75 L 166.449219 217.351562 Z M 246.183594 144.957031 L 292.6875 80.761719 L 257.101562 54.855469 L 210.597656 119.007812 L 210.597656 156.402344 Z M 246.183594 144.957031 " fill-opacity="1" fill-rule="evenodd"/></svg>