<svg xmlns="http://www.w3.org/2000/svg" xmlns:xlink="http://www.w3.org/1999/xlink" width="500" zoomAndPan="magnify" viewBox="0 0 375 374.999991" height="500" preserveAspectRatio="xMidYMid meet" version="1.0"><path fill="rgb(100%, 100%, 100%)" d="M 197.28125 341.597656 L 188.875 338.722656 C 188.875 338.722656 189.902344 295.796875 174.523438 292.710938 C 164.273438 280.796875 176.167969 -212.582031 213.070312 291.066406 C 213.070312 291.066406 200.359375 297.429688 198.097656 308.316406 C 195.652344 319.007812 197.28125 341.597656 197.28125 341.597656 Z M 197.28125 341.597656 " fill-opacity="1" fill-rule="nonzero"/><path fill="rgb(65.098572%, 63.919067%, 52.159119%)" d="M 197.28125 341.597656 L 188.875 338.722656 C 188.875 338.722656 189.902344 295.796875 174.523438 292.710938 C 164.273438 280.796875 176.167969 -212.582031 213.070312 291.066406 C 213.070312 291.066406 200.359375 297.429688 198.097656 308.316406 C 195.652344 319.007812 197.28125 341.597656 197.28125 341.597656 Z M 197.28125 341.597656 " fill-opacity="1" fill-rule="nonzero"/><path fill="rgb(100%, 100%, 100%)" d="M 201.796875 300.105469 C 201.796875 300.105469 275.402344 251.628906 258.179688 150.777344 C 241.578125 77.457031 202.414062 53.414062 198.113281 44.175781 C 193.402344 37.601562 188.890625 26.105469 188.890625 26.105469 L 191.96875 230.066406 C 191.953125 230.265625 185.601562 292.5 201.796875 300.105469 Z M 201.796875 300.105469 " fill-opacity="1" fill-rule="nonzero"/><path fill="rgb(28.62854%, 61.569214%, 29.019165%)" d="M 201.796875 300.105469 C 201.796875 300.105469 275.402344 251.628906 258.179688 150.777344 C 241.578125 77.457031 202.414062 53.414062 198.113281 44.175781 C 193.402344 37.601562 188.890625 26.105469 188.890625 26.105469 L 191.96875 230.066406 C 191.953125 230.265625 185.601562 292.5 201.796875 300.105469 Z M 201.796875 300.105469 " fill-opacity="1" fill-rule="nonzero"/><path fill="rgb(100%, 100%, 100%)" d="M 184.574219 302.769531 C 184.574219 302.769531 115.480469 255.53125 119.585938 172.339844 C 123.480469 89.148438 172.273438 48.277344 181.707031 40.882812 C 187.863281 34.316406 188.0625 31.851562 188.46875 25.277344 C 192.769531 34.515625 191.953125 163.507812 192.574219 178.707031 C 194.414062 237.25 189.296875 291.683594 184.574219 302.769531 Z M 184.574219 302.769531 " fill-opacity="1" fill-rule="nonzero"/><path fill="rgb(34.509277%, 66.668701%, 31.369019%)" d="M 184.574219 302.769531 C 184.574219 302.769531 115.480469 255.53125 119.585938 172.339844 C 123.480469 89.148438 172.273438 48.277344 181.707031 40.882812 C 187.863281 34.316406 188.0625 31.851562 188.46875 25.277344 C 192.769531 34.515625 191.953125 163.507812 192.574219 178.707031 C 194.414062 237.25 189.296875 291.683594 184.574219 302.769531 Z M 184.574219 302.769531 " fill-opacity="1" fill-rule="nonzero"/></svg>