<svg xmlns="http://www.w3.org/2000/svg" xmlns:xlink="http://www.w3.org/1999/xlink" width="500" zoomAndPan="magnify" viewBox="0 0 375 374.999991" height="500" preserveAspectRatio="xMidYMid meet" version="1.0"><defs><clipPath id="id1"><path d="M 37.5 57.1875 L 77 57.1875 L 77 214 L 37.5 214 Z M 37.5 57.1875 " clip-rule="nonzero"/></clipPath><clipPath id="id2"><path d="M 298 155 L 337.5 155 L 337.5 266 L 298 266 Z M 298 155 " clip-rule="nonzero"/></clipPath><clipPath id="id3"><path d="M 298 63 L 337.5 63 L 337.5 136 L 298 136 Z M 298 63 " clip-rule="nonzero"/></clipPath><clipPath id="id4"><path d="M 220 57.1875 L 260 57.1875 L 260 214 L 220 214 Z M 220 57.1875 " clip-rule="nonzero"/></clipPath><clipPath id="id5"><path d="M 37.5 57.1875 L 149 57.1875 L 149 175 L 37.5 175 Z M 37.5 57.1875 " clip-rule="nonzero"/></clipPath><clipPath id="id6"><path d="M 148 57.1875 L 260 57.1875 L 260 175 L 148 175 Z M 148 57.1875 " clip-rule="nonzero"/></clipPath><clipPath id="id7"><path d="M 226 200 L 337.5 200 L 337.5 318.1875 L 226 318.1875 Z M 226 200 " clip-rule="nonzero"/></clipPath></defs><g clip-path="url(#id1)"><path fill="rgb(16.079712%, 71.369934%, 96.469116%)" d="M 37.640625 57.1875 L 76.734375 83.289062 L 76.734375 213.789062 L 37.640625 187.6875 Z M 37.640625 57.1875 " fill-opacity="1" fill-rule="nonzero"/></g><g clip-path="url(#id2)"><path fill="rgb(0.779724%, 53.329468%, 81.959534%)" d="M 337.359375 155.0625 L 298.265625 181.164062 L 298.265625 265.988281 L 337.359375 239.886719 Z M 337.359375 155.0625 " fill-opacity="1" fill-rule="nonzero"/></g><g clip-path="url(#id3)"><path fill="rgb(0.779724%, 53.329468%, 81.959534%)" d="M 337.359375 63.710938 L 298.265625 89.8125 L 298.265625 135.488281 L 337.359375 109.386719 Z M 337.359375 63.710938 " fill-opacity="1" fill-rule="nonzero"/></g><g clip-path="url(#id4)"><path fill="rgb(0.779724%, 53.329468%, 81.959534%)" d="M 259.171875 57.1875 L 220.078125 83.289062 L 220.078125 213.789062 L 259.171875 187.6875 Z M 259.171875 57.1875 " fill-opacity="1" fill-rule="nonzero"/></g><g clip-path="url(#id5)"><path fill="rgb(16.079712%, 71.369934%, 96.469116%)" d="M 37.640625 102.863281 L 148.40625 174.636719 L 148.40625 128.960938 L 37.640625 57.1875 Z M 37.640625 102.863281 " fill-opacity="1" fill-rule="nonzero"/></g><g clip-path="url(#id6)"><path fill="rgb(0.779724%, 53.329468%, 81.959534%)" d="M 259.171875 102.863281 L 148.40625 174.636719 L 148.40625 128.960938 L 259.171875 57.1875 Z M 259.171875 102.863281 " fill-opacity="1" fill-rule="nonzero"/></g><path fill="rgb(0.779724%, 53.329468%, 81.959534%)" d="M 259.171875 194.210938 L 148.40625 265.988281 L 148.40625 220.3125 L 259.171875 148.539062 Z M 259.171875 194.210938 " fill-opacity="1" fill-rule="nonzero"/><g clip-path="url(#id7)"><path fill="rgb(0.779724%, 53.329468%, 81.959534%)" d="M 337.359375 246.414062 L 226.59375 318.1875 L 226.59375 272.511719 L 337.359375 200.738281 Z M 337.359375 246.414062 " fill-opacity="1" fill-rule="nonzero"/></g><path fill="rgb(16.079712%, 71.369934%, 96.469116%)" d="M 226.59375 270.980469 L 148.40625 220.3125 L 148.40625 265.988281 L 226.59375 316.652344 Z M 226.59375 270.980469 " fill-opacity="1" fill-rule="nonzero"/></svg>