<svg xmlns="http://www.w3.org/2000/svg" xmlns:xlink="http://www.w3.org/1999/xlink" width="500" zoomAndPan="magnify" viewBox="0 0 375 374.999991" height="500" preserveAspectRatio="xMidYMid meet" version="1.0"><path fill="rgb(0%, 40.388489%, 54.899597%)" d="M 345.898438 292.65625 C 325.816406 292.09375 310.238281 294.152344 297.179688 299.648438 C 293.421875 301.15625 287.386719 301.15625 286.890625 305.890625 C 288.902344 307.875 289.144531 311.125 290.90625 313.875 C 293.917969 318.871094 299.195312 325.601562 303.964844 329.089844 L 320.03125 340.574219 C 329.824219 346.558594 340.875 350.054688 350.414062 356.046875 C 355.941406 359.539062 361.460938 364.03125 366.988281 367.78125 C 369.804688 369.777344 371.507812 373.027344 375.027344 374.269531 L 375.027344 373.511719 C 373.269531 371.277344 372.765625 368.03125 371.011719 365.527344 L 363.472656 358.292969 C 356.195312 348.5625 347.148438 340.070312 337.355469 333.089844 C 329.320312 327.597656 311.746094 320.113281 308.484375 310.882812 L 307.988281 310.324219 C 313.503906 309.765625 320.03125 307.824219 325.3125 306.324219 C 333.855469 304.089844 341.632812 304.582031 350.414062 302.335938 L 362.476562 298.839844 L 362.476562 296.605469 C 357.957031 292.113281 354.691406 286.121094 349.925781 281.882812 C 337.121094 270.902344 323.050781 260.167969 308.484375 251.183594 C 300.699219 246.195312 290.652344 242.945312 282.367188 238.710938 C 279.34375 237.214844 274.332031 236.464844 272.574219 233.96875 C 268.042969 228.488281 265.539062 221.242188 262.273438 214.75 L 241.6875 171.328125 C 237.167969 161.597656 234.398438 151.863281 228.882812 142.878906 C 203.015625 100.453125 174.882812 74.753906 131.691406 49.542969 C 122.40625 44.300781 111.355469 42.046875 99.609375 39.308594 L 80.777344 38.300781 C 76.753906 36.554688 72.742188 31.8125 69.222656 29.5625 C 54.910156 20.582031 17.996094 1.113281 7.441406 26.765625 C 0.660156 42.988281 17.488281 58.957031 23.199219 67.195312 C 27.476562 72.933594 32.992188 79.421875 36.015625 85.910156 C 37.703125 90.152344 38.265625 94.648438 40.027344 99.140625 C 44.042969 110.121094 47.8125 122.351562 53.085938 132.589844 C 55.902344 137.828125 58.855469 143.328125 62.375 148.066406 C 64.382812 150.863281 67.902344 152.058594 68.648438 156.550781 C 65.132812 161.546875 64.890625 169.023438 62.878906 175.273438 C 53.835938 203.472656 57.351562 238.410156 70.15625 259.171875 C 74.183594 265.410156 83.664062 279.140625 96.53125 273.894531 C 107.832031 269.402344 105.3125 255.179688 108.578125 242.699219 C 109.335938 239.707031 108.828125 237.710938 110.332031 235.707031 L 110.332031 236.269531 L 120.632812 256.980469 C 128.417969 269.207031 141.980469 281.9375 153.277344 290.429688 C 159.300781 294.921875 164.070312 302.660156 171.601562 305.402344 L 171.601562 304.648438 L 171.105469 304.648438 C 169.597656 302.410156 167.335938 301.402344 165.328125 299.65625 C 160.808594 295.167969 155.785156 289.671875 152.269531 284.683594 C 141.726562 270.710938 132.441406 255.234375 124.148438 239.265625 C 120.125 231.53125 116.609375 223.046875 113.355469 215.308594 C 111.835938 212.3125 111.835938 207.8125 109.332031 206.328125 C 105.558594 211.808594 100.042969 216.5625 97.269531 223.296875 C 92.496094 234.023438 92 247.253906 90.246094 260.980469 C 89.230469 261.230469 89.683594 260.980469 89.230469 261.539062 C 81.207031 259.546875 78.4375 251.304688 75.425781 244.324219 C 67.894531 226.601562 66.632812 198.152344 73.164062 177.6875 C 74.917969 172.445312 82.460938 155.972656 79.449219 150.984375 C 77.929688 146.242188 72.921875 143.5 70.152344 139.753906 C 66.886719 135.011719 63.382812 129.023438 61.117188 123.785156 C 55.097656 109.800781 52.085938 94.335938 45.550781 80.355469 C 42.527344 73.867188 37.261719 67.128906 32.988281 61.144531 C 28.214844 54.402344 22.953125 49.660156 19.183594 41.679688 C 17.925781 38.882812 16.171875 34.441406 18.179688 31.441406 C 18.675781 29.445312 19.6875 28.644531 21.6875 28.199219 C 24.949219 25.402344 34.25 28.949219 37.511719 30.4375 C 46.800781 34.183594 54.585938 37.671875 62.367188 42.910156 C 65.886719 45.402344 69.65625 50.148438 74.175781 51.398438 L 79.457031 51.398438 C 87.492188 53.144531 96.527344 51.960938 104.050781 54.195312 C 117.363281 58.449219 129.414062 64.679688 140.21875 71.425781 C 173.109375 92.136719 200.238281 121.585938 218.566406 156.78125 C 221.578125 162.519531 222.832031 167.757812 225.601562 173.75 C 230.878906 185.984375 237.410156 198.457031 242.671875 210.441406 C 247.949219 222.171875 252.972656 234.160156 260.5 243.890625 C 264.273438 249.132812 279.332031 251.875 286.109375 254.621094 C 291.136719 256.855469 298.914062 258.871094 303.445312 261.613281 C 311.976562 266.851562 320.515625 272.84375 328.546875 278.582031 C 332.5625 281.570312 345.125 287.8125 345.871094 292.789062 Z M 89.8125 75.789062 C 86.328125 75.757812 82.898438 76.171875 79.523438 77.035156 L 79.523438 77.59375 L 80.019531 77.59375 C 82.027344 81.585938 85.546875 84.332031 88.054688 87.828125 L 93.835938 99.8125 L 94.332031 99.25 C 97.847656 96.757812 99.609375 92.761719 99.609375 86.777344 C 98.101562 85.03125 97.855469 83.28125 96.597656 81.539062 C 95.089844 79.042969 91.828125 77.789062 89.8125 75.796875 Z M 89.8125 75.789062 " fill-opacity="1" fill-rule="evenodd"/></svg>