<svg xmlns="http://www.w3.org/2000/svg" xmlns:xlink="http://www.w3.org/1999/xlink" width="500" zoomAndPan="magnify" viewBox="0 0 375 374.999991" height="500" preserveAspectRatio="xMidYMid meet" version="1.0"><defs><clipPath id="id1"><path d="M 23.4375 0 L 351.9375 0 L 351.9375 375 L 23.4375 375 Z M 23.4375 0 " clip-rule="nonzero"/></clipPath></defs><g clip-path="url(#id1)"><path fill="rgb(12.548828%, 57.249451%, 21.569824%)" d="M 351.9375 281.25 L 351.9375 93.75 L 187.6875 0 L 23.4375 93.75 L 23.4375 281.25 L 187.6875 375 Z M 135.066406 259.203125 C 135.066406 270.46875 126.054688 279.359375 114.933594 279.359375 L 113.742188 279.359375 C 102.355469 279.359375 93.359375 269.984375 93.359375 259.203125 L 93.359375 115.78125 C 93.359375 104.765625 103.308594 95.625 117.058594 95.625 C 127.273438 95.625 138.867188 99.609375 145.96875 108.28125 L 240.292969 219.859375 L 240.292969 115.78125 C 240.292969 104.515625 249.773438 95.625 260.675781 95.625 L 261.867188 95.625 C 273.238281 95.625 282.25 105 282.25 115.78125 L 282.25 259.21875 L 282.484375 259.21875 C 282.484375 270.234375 272.269531 279.375 258.332031 279.375 C 248.367188 279.375 236.976562 275.390625 229.875 266.71875 L 135.066406 155.140625 Z M 135.066406 259.203125 " fill-opacity="1" fill-rule="nonzero"/></g></svg>