<svg xmlns="http://www.w3.org/2000/svg" xmlns:xlink="http://www.w3.org/1999/xlink" width="500" zoomAndPan="magnify" viewBox="0 0 375 374.999991" height="500" preserveAspectRatio="xMidYMid meet" version="1.0"><path fill="rgb(100%, 100%, 100%)" d="M 361.21875 228.324219 C 359.660156 221.257812 353.25 213.015625 340.320312 213.015625 C 337.679688 213.015625 334.789062 213.347656 331.5 214.03125 C 325.464844 215.277344 320.328125 215.878906 315.800781 216.085938 C 351.027344 156.085938 373.890625 72.742188 351.246094 43.808594 C 321.410156 5.683594 281.242188 -0.0078125 259.960938 -0.0078125 L 257.957031 0 C 250.039062 0.128906 241.824219 1.097656 233.558594 2.890625 L 203.019531 9.484375 C 198.859375 8.964844 194.625 8.597656 190.210938 8.523438 L 189.816406 8.523438 L 188.523438 8.515625 C 174.945312 8.515625 162.5625 11.394531 151.527344 16.808594 L 140.863281 12.605469 C 126.203125 6.828125 104.148438 -0.0507812 82.328125 -0.0507812 C 81.101562 -0.0507812 79.882812 -0.0273438 78.65625 0.015625 C 57.160156 0.792969 38.703125 8.949219 25.261719 23.597656 C 8.488281 41.890625 0.851562 68.640625 2.582031 103.125 C 2.667969 104.90625 23.53125 281.25 82.671875 281.25 L 82.882812 281.25 L 83.429688 281.242188 C 91.109375 281.054688 98.429688 277.96875 105.273438 272.0625 C 110.496094 275.984375 117.253906 278.300781 123.554688 279.222656 C 127.714844 280.203125 135.195312 281.589844 144.160156 281.589844 C 155.105469 281.589844 164.972656 279.347656 173.480469 275.300781 C 173.472656 282.800781 173.429688 292.296875 173.34375 304.433594 L 173.335938 305.070312 L 173.378906 305.710938 C 174.203125 317.804688 176.292969 328.703125 179.4375 337.253906 C 188.394531 361.621094 203.863281 375.042969 222.996094 375.042969 C 223.789062 375.042969 224.597656 375.015625 225.417969 374.964844 C 241.152344 373.996094 257.097656 365.15625 268.066406 351.339844 C 279.9375 336.382812 282.683594 320.597656 283.738281 308.503906 L 283.808594 307.765625 L 283.808594 272.25 L 284.683594 272.335938 L 288.402344 272.660156 L 288.757812 272.691406 L 289.117188 272.710938 C 290.171875 272.761719 291.265625 272.777344 292.363281 272.777344 C 305.207031 272.777344 321.015625 269.445312 331.703125 264.476562 C 341.921875 259.738281 365.277344 246.714844 361.21875 228.324219 Z M 361.21875 228.324219 " fill-opacity="1" fill-rule="nonzero"/><path fill="rgb(0.779724%, 46.669006%, 74.119568%)" d="M 266.761719 264.203125 C 266.761719 262.457031 266.863281 261 266.914062 259.390625 C 266.828125 257.25 266.761719 255.683594 266.761719 255.683594 C 266.761719 255.683594 266.863281 255.605469 267.035156 255.496094 C 268.304688 232.714844 274.585938 223.933594 281.308594 218.933594 C 280.371094 217.628906 279.289062 216.222656 278.277344 214.882812 C 275.4375 211.160156 271.902344 206.539062 268.117188 200.617188 L 267.417969 199.269531 C 266.847656 197.871094 265.464844 195.460938 263.710938 192.289062 C 253.628906 174.050781 232.644531 136.109375 247.003906 112.140625 C 253.296875 101.640625 265.089844 95.589844 282.128906 94.097656 C 275.164062 74.300781 249.078125 26.546875 189.929688 25.566406 C 189.910156 25.566406 189.894531 25.566406 189.878906 25.566406 C 138.390625 24.734375 121.472656 71.523438 115.96875 99.476562 C 123.554688 96.265625 132.214844 94.3125 140.140625 94.3125 C 140.257812 94.3125 140.386719 94.3125 140.503906 94.3125 C 160.023438 94.457031 173.445312 104.871094 177.347656 122.898438 C 180.203125 136.125 181.578125 147.699219 181.542969 158.292969 C 181.457031 181.464844 176.785156 193.652344 172.660156 204.410156 L 171.347656 207.886719 C 170.292969 210.734375 169.175781 213.382812 168.121094 215.871094 C 167.046875 218.410156 166.097656 220.671875 165.410156 222.707031 C 169.535156 223.644531 172.773438 224.964844 174.996094 225.945312 L 176.285156 226.507812 C 176.683594 226.679688 177.085938 226.875 177.453125 227.097656 C 184.679688 231.496094 189.179688 238.253906 190.140625 246.128906 C 190.660156 250.371094 190.578125 279.308594 190.398438 304.550781 C 191.140625 315.503906 192.996094 324.699219 195.453125 331.363281 C 198.9375 340.859375 207.648438 358.984375 224.378906 357.945312 C 236.054688 357.222656 247.277344 350.113281 254.726562 340.738281 C 262.722656 330.671875 265.671875 319.542969 266.777344 307.003906 L 266.777344 264.203125 Z M 266.761719 264.203125 " fill-opacity="1" fill-rule="nonzero"/><path fill="rgb(0.779724%, 46.669006%, 74.119568%)" d="M 114.324219 220.882812 C 100.578125 206.539062 93.878906 187.246094 96.390625 169.269531 C 98.820312 151.925781 97.449219 134.949219 96.707031 125.820312 C 96.460938 122.777344 96.296875 120.511719 96.308594 119.257812 C 96.308594 119.191406 96.324219 119.128906 96.332031 119.0625 C 96.332031 119.027344 96.316406 119.003906 96.316406 118.96875 C 97.347656 93.222656 107.277344 52.601562 134.609375 28.457031 C 121.296875 23.214844 99.613281 16.304688 79.261719 17.046875 C 47.371094 18.203125 16.5 40.261719 19.601562 102.273438 C 20.769531 125.539062 47.0625 265.082031 83.011719 264.203125 C 88.152344 264.078125 93.484375 260.777344 98.964844 254.183594 C 107.632812 243.757812 116.054688 234.308594 122.046875 227.726562 C 119.359375 225.691406 116.769531 223.441406 114.324219 220.882812 Z M 301.046875 99.980469 C 301.175781 101.292969 301.066406 102.417969 300.859375 103.457031 C 301.125 111.296875 300.28125 118.910156 299.421875 126.273438 C 298.789062 131.691406 298.140625 137.292969 297.964844 142.910156 C 297.785156 148.40625 298.558594 153.835938 299.378906 159.578125 C 301.296875 173.027344 303.289062 188.207031 292.859375 205.917969 C 294.777344 208.441406 296.464844 210.785156 297.808594 213.050781 C 337.097656 149.34375 352.933594 73.609375 337.824219 54.308594 C 314.957031 25.089844 283.304688 16.636719 258.230469 17.046875 C 250.378906 17.171875 243.246094 18.230469 237.152344 19.550781 C 280.414062 40.515625 299.683594 85.449219 301.046875 99.980469 Z M 334.941406 230.71875 C 312.230469 235.40625 301.304688 232.910156 296.003906 229.644531 C 295.152344 230.257812 294.296875 230.777344 293.503906 231.265625 C 290.335938 233.183594 285.316406 236.234375 284.089844 254.972656 C 284.796875 255.109375 285.417969 255.1875 286.183594 255.347656 L 289.890625 255.683594 C 301.140625 256.191406 315.878906 253.039062 324.519531 249.027344 C 343.140625 240.382812 353.292969 226.933594 334.941406 230.71875 Z M 173.207031 248.171875 C 172.890625 245.632812 171.519531 243.578125 169.015625 241.933594 L 168.09375 241.535156 C 165.015625 240.179688 161.53125 238.636719 155.964844 238.636719 L 155.933594 238.636719 C 154.847656 238.722656 153.777344 238.796875 152.691406 238.796875 C 152.25 238.796875 151.816406 238.738281 151.371094 238.722656 C 147.332031 241.832031 141.589844 244.234375 127.371094 247.160156 C 101.972656 253.628906 116.964844 261.265625 126.707031 262.449219 C 136.132812 264.808594 158.539062 267.683594 173.421875 255.554688 C 173.378906 251.734375 173.308594 249.109375 173.207031 248.171875 Z M 173.207031 248.171875 " fill-opacity="1" fill-rule="nonzero"/><path fill="rgb(0.779724%, 46.669006%, 74.119568%)" d="M 161.769531 132.109375 C 159.28125 134.683594 155.351562 136.933594 151.015625 136.234375 C 143.957031 135.09375 138.546875 126.578125 138.9375 123.382812 C 139.3125 120.195312 145.339844 118.535156 152.386719 119.675781 C 154.832031 120.078125 157.058594 120.765625 158.933594 121.621094 C 156.203125 115.753906 151.269531 112.371094 143.746094 111.546875 C 130.40625 110.0625 116.25 117.035156 113.402344 120.894531 C 113.464844 121.832031 113.574219 123.035156 113.683594 124.449219 C 114.476562 134.222656 115.941406 152.4375 113.257812 171.640625 C 111.484375 184.296875 116.609375 198.648438 126.613281 209.097656 C 133.066406 215.828125 140.597656 220.089844 148.03125 221.351562 C 148.976562 217.277344 150.664062 213.308594 152.402344 209.207031 C 153.367188 206.949219 154.390625 204.546875 155.351562 201.945312 L 156.734375 198.308594 C 160.507812 188.464844 164.402344 178.277344 164.480469 158.222656 C 164.515625 150.511719 163.566406 141.707031 161.769531 132.109375 Z M 282.503906 161.992188 C 281.617188 155.777344 280.703125 149.34375 280.925781 142.363281 C 281.121094 136.039062 281.820312 130.074219 282.496094 124.304688 C 283.023438 119.761719 283.433594 115.398438 283.671875 111.09375 C 272.683594 112.003906 265.390625 115.175781 261.929688 120.535156 C 263.359375 120.050781 264.980469 119.667969 266.769531 119.4375 C 274.371094 118.449219 279.921875 120.640625 280.558594 124.867188 C 281.027344 127.960938 278.402344 130.875 277.253906 131.992188 C 274.890625 134.285156 271.917969 135.757812 268.890625 136.152344 C 268.347656 136.21875 267.792969 136.253906 267.253906 136.253906 C 264.246094 136.253906 261.375 135.222656 259.167969 133.695312 C 260.121094 150.511719 272.523438 173.003906 278.625 184.039062 C 279.929688 186.402344 280.933594 188.285156 281.769531 189.902344 C 285.121094 180.367188 283.882812 171.671875 282.503906 161.992188 Z M 282.503906 161.992188 " fill-opacity="1" fill-rule="nonzero"/></svg>