<svg xmlns="http://www.w3.org/2000/svg" xmlns:xlink="http://www.w3.org/1999/xlink" width="500" zoomAndPan="magnify" viewBox="0 0 375 374.999991" height="500" preserveAspectRatio="xMidYMid meet" version="1.0"><defs><clipPath id="id1"><path d="M 10.378906 0 L 364.378906 0 L 364.378906 375 L 10.378906 375 Z M 10.378906 0 " clip-rule="nonzero"/></clipPath></defs><g clip-path="url(#id1)"><path fill="#ff6600" d="M 349.777344 149.875 L 232.113281 149.875 C 231.410156 149.875 230.714844 149.804688 230.027344 149.667969 C 229.335938 149.53125 228.667969 149.328125 228.019531 149.058594 C 227.371094 148.789062 226.753906 148.460938 226.171875 148.070312 C 225.585938 147.679688 225.046875 147.234375 224.550781 146.738281 C 224.054688 146.242188 223.609375 145.699219 223.21875 145.117188 C 222.832031 144.53125 222.5 143.914062 222.230469 143.265625 C 221.964844 142.617188 221.761719 141.949219 221.621094 141.257812 C 221.484375 140.570312 221.417969 139.875 221.417969 139.171875 L 221.417969 16.464844 C 221.417969 7.375 214.050781 0.00390625 204.976562 0.00390625 L 162.972656 0.00390625 C 153.890625 0.00390625 146.53125 7.375 146.53125 16.464844 L 146.53125 138.429688 C 146.53125 144.757812 141.417969 149.898438 135.09375 149.925781 L 96.535156 150.113281 C 90.15625 150.144531 84.976562 144.96875 84.988281 138.59375 L 85.226562 16.492188 C 85.25 7.390625 77.882812 0.00390625 68.789062 0.00390625 L 26.820312 0.00390625 C 17.734375 0.00390625 10.378906 7.375 10.378906 16.464844 L 10.378906 360.066406 C 10.378906 368.136719 16.914062 374.675781 24.972656 374.675781 L 349.777344 374.675781 C 357.84375 374.675781 364.378906 368.136719 364.378906 360.066406 L 364.378906 164.484375 C 364.378906 156.414062 357.84375 149.875 349.777344 149.875 Z M 294.597656 278.882812 C 294.597656 289.460938 286.027344 298.039062 275.457031 298.039062 L 242.261719 298.039062 C 231.6875 298.039062 223.117188 289.460938 223.117188 278.882812 L 223.117188 245.667969 C 223.117188 235.085938 231.6875 226.511719 242.261719 226.511719 L 275.457031 226.511719 C 286.027344 226.511719 294.597656 235.085938 294.597656 245.667969 Z M 294.597656 278.882812 " fill-opacity="1" fill-rule="nonzero"/></g></svg>