<svg xmlns="http://www.w3.org/2000/svg" xmlns:xlink="http://www.w3.org/1999/xlink" width="500" zoomAndPan="magnify" viewBox="0 0 375 374.999991" height="500" preserveAspectRatio="xMidYMid meet" version="1.0"><path fill="rgb(71.759033%, 10.978699%, 10.978699%)" d="M 373.230469 229.769531 C 373.230469 224.132812 358.320312 219.566406 339.898438 219.566406 C 323.871094 219.566406 310.535156 223.027344 307.324219 227.628906 C 275.605469 212.636719 243.882812 197.644531 212.167969 182.648438 C 201.128906 177.425781 188.527344 177.480469 177.515625 182.769531 C 143.746094 199.027344 109.980469 215.28125 76.210938 231.539062 C 68.570312 230.421875 59.34375 229.757812 49.394531 229.757812 C 23.066406 229.769531 1.769531 234.335938 1.769531 239.972656 L 1.769531 270.589844 C 1.769531 270.882812 2.0625 271.15625 2.167969 271.4375 C 0.875 276.351562 2.785156 282.101562 7.90625 284.519531 C 57.796875 308.101562 107.679688 331.675781 157.570312 355.257812 C 170.234375 361.25 184.707031 361.195312 197.335938 355.117188 C 254.308594 327.683594 311.285156 300.261719 368.269531 272.828125 C 372.550781 270.765625 374.027344 265.871094 372.769531 261.792969 C 372.976562 261.324219 373.230469 260.863281 373.230469 260.378906 Z M 373.230469 229.769531 " fill-opacity="1" fill-rule="nonzero"/><path fill="rgb(89.7995%, 22.349548%, 20.779419%)" d="M 157.570312 316.863281 C 107.679688 294.542969 57.796875 272.226562 7.90625 249.910156 C -0.246094 246.261719 -0.28125 234.625 7.84375 230.917969 C 64.40625 205.148438 120.957031 179.382812 177.515625 153.613281 C 188.515625 148.597656 201.128906 148.550781 212.167969 153.488281 C 264.179688 176.761719 316.203125 200.027344 368.214844 223.300781 C 374.886719 226.28125 374.921875 235.8125 368.269531 238.839844 C 311.292969 264.800781 254.320312 290.765625 197.335938 316.71875 C 184.707031 322.472656 170.234375 322.523438 157.570312 316.863281 Z M 157.570312 316.863281 " fill-opacity="1" fill-rule="nonzero"/><path fill="rgb(71.759033%, 10.978699%, 10.978699%)" d="M 373.230469 162.152344 C 373.230469 156.515625 358.320312 151.949219 339.898438 151.949219 C 323.871094 151.949219 310.535156 155.410156 307.324219 160.011719 C 275.605469 145.019531 243.882812 130.03125 212.167969 115.03125 C 201.128906 109.808594 188.527344 109.863281 177.515625 115.15625 C 143.746094 131.410156 109.980469 147.667969 76.210938 163.921875 C 68.570312 162.808594 59.34375 162.144531 49.394531 162.144531 C 23.066406 162.152344 1.769531 166.726562 1.769531 172.363281 L 1.769531 202.980469 C 1.769531 203.273438 2.0625 203.546875 2.167969 203.832031 C 0.875 208.742188 2.785156 214.496094 7.90625 216.910156 C 57.796875 240.492188 107.679688 264.066406 157.570312 287.652344 C 170.234375 293.640625 184.707031 293.589844 197.335938 287.507812 C 254.308594 260.078125 311.285156 232.652344 368.269531 205.222656 C 372.550781 203.160156 374.027344 198.265625 372.769531 194.1875 C 372.976562 193.71875 373.230469 193.257812 373.230469 192.769531 Z M 373.230469 162.152344 " fill-opacity="1" fill-rule="nonzero"/><path fill="rgb(89.7995%, 22.349548%, 20.779419%)" d="M 157.570312 249.246094 C 107.679688 226.929688 57.796875 204.609375 7.90625 182.292969 C -0.246094 178.648438 -0.28125 167.011719 7.84375 163.304688 C 64.40625 137.535156 120.957031 111.765625 177.515625 85.996094 C 188.515625 80.980469 201.128906 80.933594 212.167969 85.875 C 264.179688 109.144531 316.203125 132.410156 368.214844 155.683594 C 374.886719 158.664062 374.921875 168.195312 368.269531 171.222656 C 311.292969 197.1875 254.320312 223.148438 197.335938 249.105469 C 184.707031 254.863281 170.234375 254.917969 157.570312 249.246094 Z M 157.570312 249.246094 " fill-opacity="1" fill-rule="nonzero"/><path fill="rgb(71.759033%, 10.978699%, 10.978699%)" d="M 373.230469 94.546875 C 373.230469 88.910156 358.320312 84.34375 339.898438 84.34375 C 323.871094 84.34375 310.535156 87.800781 307.324219 92.402344 C 275.605469 77.414062 243.882812 62.421875 212.167969 47.425781 C 201.128906 42.203125 188.527344 42.257812 177.515625 47.546875 C 143.746094 63.804688 109.980469 80.058594 76.210938 96.316406 C 68.570312 95.199219 59.34375 94.535156 49.394531 94.535156 C 23.066406 94.546875 1.769531 99.113281 1.769531 104.75 L 1.769531 135.367188 C 1.769531 135.660156 2.0625 135.933594 2.167969 136.214844 C 0.875 141.128906 2.785156 146.878906 7.90625 149.292969 C 57.796875 172.878906 107.679688 196.453125 157.570312 220.035156 C 170.234375 226.023438 184.707031 225.972656 197.335938 219.894531 C 254.308594 192.460938 311.285156 165.039062 368.269531 137.605469 C 372.550781 135.542969 374.027344 130.648438 372.769531 126.570312 C 372.976562 126.101562 373.230469 125.640625 373.230469 125.15625 Z M 373.230469 94.546875 " fill-opacity="1" fill-rule="nonzero"/><path fill="rgb(89.7995%, 22.349548%, 20.779419%)" d="M 157.570312 181.636719 C 107.679688 159.320312 57.796875 137.003906 7.90625 114.6875 C -0.246094 111.039062 -0.28125 99.402344 7.84375 95.695312 C 64.40625 69.925781 120.957031 44.160156 177.515625 18.390625 C 188.515625 13.371094 201.128906 13.328125 212.167969 18.265625 C 264.179688 41.539062 316.203125 64.804688 368.214844 88.078125 C 374.886719 91.058594 374.921875 100.589844 368.269531 103.617188 C 311.292969 129.578125 254.320312 155.542969 197.335938 181.496094 C 184.707031 187.257812 170.234375 187.300781 157.570312 181.636719 Z M 157.570312 181.636719 " fill-opacity="1" fill-rule="nonzero"/><path fill="rgb(100%, 100%, 100%)" d="M 141.050781 100.792969 C 141.03125 110.011719 116.621094 118.996094 96.003906 119.253906 C 74.609375 119.515625 49.367188 110.464844 49.289062 101.101562 C 49.210938 91.714844 74.425781 81.980469 96.261719 82.210938 C 116.894531 82.421875 141.074219 91.609375 141.050781 100.792969 Z M 141.050781 100.792969 " fill-opacity="1" fill-rule="nonzero"/><path fill="rgb(100%, 100%, 100%)" d="M 125.925781 133.800781 C 147.089844 142.84375 168.246094 151.894531 189.410156 160.941406 C 198.730469 147.136719 208.054688 133.332031 217.375 119.527344 C 186.890625 124.289062 156.414062 129.046875 125.925781 133.800781 Z M 125.925781 133.800781 " fill-opacity="1" fill-rule="nonzero"/><path fill="rgb(100%, 100%, 100%)" d="M 168.574219 56.847656 C 158.835938 60.398438 149.089844 63.9375 139.351562 67.484375 C 152.679688 68.652344 166.015625 69.820312 179.34375 70.980469 C 183.589844 78.023438 187.828125 85.066406 192.074219 92.101562 C 194.679688 85.714844 197.289062 79.324219 199.898438 72.9375 C 211.273438 72.050781 222.648438 71.167969 234.019531 70.28125 C 225.203125 66.574219 216.386719 62.855469 207.566406 59.140625 C 209.8125 53.761719 212.0625 48.378906 214.308594 42.992188 C 205.726562 45.558594 197.15625 48.121094 188.578125 50.6875 C 179.117188 46.953125 169.652344 43.230469 160.1875 39.496094 C 162.984375 45.28125 165.777344 51.070312 168.574219 56.847656 Z M 168.574219 56.847656 " fill-opacity="1" fill-rule="nonzero"/><path fill="rgb(71.759033%, 10.978699%, 10.978699%)" d="M 216.394531 99.714844 C 236.480469 91.695312 256.574219 83.667969 276.660156 75.652344 C 294.011719 83.03125 311.363281 90.414062 328.71875 97.792969 C 309.242188 105.542969 289.777344 113.296875 270.300781 121.058594 C 252.335938 113.933594 234.367188 106.828125 216.394531 99.714844 Z M 216.394531 99.714844 " fill-opacity="1" fill-rule="nonzero"/><path fill="rgb(62.748718%, 10.978699%, 10.978699%)" d="M 276.667969 76.210938 C 276.625 90.332031 276.582031 104.449219 276.535156 118.570312 C 293.933594 111.640625 311.328125 104.722656 328.726562 97.792969 C 311.375 90.597656 294.019531 83.40625 276.667969 76.210938 Z M 276.667969 76.210938 " fill-opacity="1" fill-rule="nonzero"/></svg>