<svg xmlns="http://www.w3.org/2000/svg" xmlns:xlink="http://www.w3.org/1999/xlink" width="500" zoomAndPan="magnify" viewBox="0 0 375 374.999991" height="500" preserveAspectRatio="xMidYMid meet" version="1.0"><defs><clipPath id="id1"><path d="M 83 31.398438 L 269 31.398438 L 269 281 L 83 281 Z M 83 31.398438 " clip-rule="nonzero"/></clipPath><clipPath id="id2"><path d="M 137 124 L 349 124 L 349 343.398438 L 137 343.398438 Z M 137 124 " clip-rule="nonzero"/></clipPath><clipPath id="id3"><path d="M 21 179 L 271 179 L 271 343.398438 L 21 343.398438 Z M 21 179 " clip-rule="nonzero"/></clipPath></defs><g clip-path="url(#id1)"><path fill="rgb(49.409485%, 34.118652%, 76.078796%)" d="M 176.90625 31.398438 C 125.277344 31.398438 83.277344 88.105469 83.277344 157.796875 C 83.277344 195.503906 95.621094 229.316406 115.09375 252.457031 C 114.71875 254.117188 114.484375 255.828125 114.484375 257.597656 C 114.484375 270.523438 124.964844 280.996094 137.894531 280.996094 C 150.820312 280.996094 161.300781 270.523438 161.300781 257.597656 C 161.300781 244.671875 150.820312 234.199219 137.894531 234.199219 C 135.4375 234.199219 133.117188 234.679688 130.894531 235.382812 C 116.09375 216.5 106.683594 188.761719 106.683594 157.796875 C 106.683594 101.003906 138.183594 54.796875 176.90625 54.796875 C 206.84375 54.796875 232.390625 82.464844 242.476562 121.238281 C 251.230469 123.9375 259.929688 127.335938 268.460938 131.441406 C 259.449219 74.359375 221.839844 31.398438 176.90625 31.398438 Z M 176.90625 31.398438 " fill-opacity="1" fill-rule="nonzero"/></g><g clip-path="url(#id2)"><path fill="rgb(49.409485%, 34.118652%, 76.078796%)" d="M 274.492188 156.851562 C 243.695312 138.195312 209.152344 130.003906 179.441406 133.773438 C 175.148438 128.460938 168.660156 124.996094 161.300781 124.996094 C 148.371094 124.996094 137.894531 135.472656 137.894531 148.398438 C 137.894531 161.324219 148.371094 171.796875 161.300781 171.796875 C 171.226562 171.796875 179.660156 165.597656 183.0625 156.882812 C 207.390625 153.929688 236.210938 161.027344 262.359375 176.875 C 312.316406 207.148438 337.808594 259.3125 319.175781 293.179688 C 312.722656 304.914062 301.339844 313.242188 286.265625 317.285156 C 268.429688 322.050781 247.199219 320.355469 225.976562 313.164062 C 219.429688 319.1875 212.328125 324.847656 204.714844 330.074219 C 224.625 338.789062 245.253906 343.367188 264.550781 343.367188 C 274.226562 343.367188 283.574219 342.21875 292.320312 339.878906 C 313.707031 334.164062 330.089844 321.910156 339.6875 304.453125 C 364.289062 259.75 335.039062 193.535156 274.492188 156.851562 Z M 274.492188 156.851562 " fill-opacity="1" fill-rule="nonzero"/></g><g clip-path="url(#id3)"><path fill="rgb(49.409485%, 34.118652%, 76.078796%)" d="M 270.535156 226.335938 C 270.535156 213.449219 260.054688 202.996094 247.128906 202.996094 C 234.199219 202.996094 223.71875 213.449219 223.71875 226.335938 C 223.71875 231.554688 225.5 236.328125 228.402344 240.210938 C 218.421875 262.066406 199.1875 283.632812 173.300781 299.320312 C 143.144531 317.601562 109.4375 324.296875 83.144531 317.277344 C 68.070312 313.234375 56.6875 304.90625 50.234375 293.171875 C 36.953125 269.039062 46.167969 235.640625 70.597656 207.46875 C 68.078125 198.542969 66.210938 189.214844 65.089844 179.582031 C 25.53125 217 9.621094 267.902344 29.726562 304.453125 C 39.324219 321.910156 55.710938 334.164062 77.097656 339.878906 C 85.84375 342.21875 95.183594 343.367188 104.867188 343.367188 C 130.972656 343.367188 159.539062 335.035156 185.433594 319.34375 C 215.363281 301.207031 237.578125 275.84375 249.484375 249.4375 C 261.289062 248.246094 270.535156 238.417969 270.535156 226.335938 Z M 270.535156 226.335938 " fill-opacity="1" fill-rule="nonzero"/></g></svg>