<svg xmlns="http://www.w3.org/2000/svg" xmlns:xlink="http://www.w3.org/1999/xlink" width="500" zoomAndPan="magnify" viewBox="0 0 375 374.999991" height="500" preserveAspectRatio="xMidYMid meet" version="1.0"><defs><clipPath id="id1"><path d="M 7.382812 8.5625 L 366.632812 8.5625 L 366.632812 367.8125 L 7.382812 367.8125 Z M 7.382812 8.5625 " clip-rule="nonzero"/></clipPath></defs><g clip-path="url(#id1)"><path fill="rgb(95.289612%, 38.819885%, 9.408569%)" d="M 187.007812 8.578125 C 286.214844 8.578125 366.632812 89 366.632812 188.199219 C 366.632812 287.40625 286.214844 367.824219 187.007812 367.824219 C 87.808594 367.824219 7.386719 287.40625 7.386719 188.199219 C 7.386719 89 87.808594 8.578125 187.007812 8.578125 " fill-opacity="1" fill-rule="nonzero"/></g><path fill="rgb(100%, 100%, 100%)" d="M 64.867188 164.21875 C 78.113281 164.21875 88.847656 174.957031 88.847656 188.199219 C 88.847656 201.445312 78.113281 212.179688 64.867188 212.179688 C 51.625 212.179688 40.886719 201.445312 40.886719 188.199219 C 40.886719 174.957031 51.625 164.21875 64.867188 164.21875 " fill-opacity="1" fill-rule="nonzero"/><path fill="rgb(100%, 100%, 100%)" d="M 129.210938 274.882812 C 108.226562 260.859375 92.613281 239.425781 86.128906 214.316406 C 93.707031 208.144531 98.542969 198.742188 98.542969 188.199219 C 98.542969 177.660156 93.707031 168.257812 86.128906 162.085938 C 92.613281 136.976562 108.226562 115.542969 129.210938 101.523438 L 146.746094 130.890625 C 128.734375 143.566406 116.957031 164.496094 116.957031 188.199219 C 116.957031 211.902344 128.734375 232.835938 146.746094 245.511719 L 129.210938 274.882812 " fill-opacity="1" fill-rule="nonzero"/><path fill="rgb(100%, 100%, 100%)" d="M 268.851562 94.410156 C 262.226562 105.882812 247.5625 109.8125 236.09375 103.191406 C 224.621094 96.566406 220.691406 81.902344 227.316406 70.433594 C 233.9375 58.960938 248.601562 55.035156 260.070312 61.65625 C 271.539062 68.277344 275.472656 82.941406 268.851562 94.410156 " fill-opacity="1" fill-rule="nonzero"/><path fill="rgb(100%, 100%, 100%)" d="M 140.84375 94.808594 C 163.476562 83.640625 189.847656 80.839844 214.832031 87.777344 C 216.394531 97.425781 222.117188 106.316406 231.242188 111.585938 C 240.371094 116.855469 250.933594 117.367188 260.070312 113.890625 C 278.570312 132.0625 289.328125 156.300781 290.976562 181.484375 L 256.777344 181.984375 C 254.804688 160.050781 242.5625 139.386719 222.035156 127.53125 C 201.511719 115.683594 177.492188 115.414062 157.511719 124.675781 L 140.84375 94.808594 " fill-opacity="1" fill-rule="nonzero"/><path fill="rgb(100%, 100%, 100%)" d="M 227.316406 305.96875 C 220.691406 294.5 224.621094 279.835938 236.09375 273.210938 C 247.5625 266.589844 262.226562 270.519531 268.851562 281.988281 C 275.472656 293.460938 271.539062 308.125 260.070312 314.746094 C 248.601562 321.367188 233.9375 317.441406 227.316406 305.96875 " fill-opacity="1" fill-rule="nonzero"/><path fill="rgb(100%, 100%, 100%)" d="M 290.976562 194.917969 C 289.328125 220.101562 278.570312 244.339844 260.070312 262.507812 C 250.933594 259.035156 240.371094 259.546875 231.242188 264.8125 C 222.117188 270.085938 216.394531 278.976562 214.832031 288.625 C 189.847656 295.5625 163.476562 292.761719 140.84375 281.59375 L 157.511719 251.726562 C 177.492188 260.988281 201.511719 260.71875 222.035156 248.867188 C 242.5625 237.019531 254.804688 216.351562 256.777344 194.414062 L 290.976562 194.917969 " fill-opacity="1" fill-rule="nonzero"/></svg>