<svg xmlns="http://www.w3.org/2000/svg" version="1.0" width="948.000000pt" height="1280.000000pt" viewBox="0 0 948.000000 1280.000000" preserveAspectRatio="xMidYMid meet">
    <metadata>
    Created by potrace 1.15, written by Peter Selinger 2001-2017
    </metadata>
    <g transform="translate(0.000000,1280.000000) scale(0.100000,-0.100000)" fill="#ff0000" stroke="none">
    <path d="M0 6400 l0 -6400 1600 0 1600 0 2 1685 3 1686 1155 -1686 1154 -1685 1985 0 c1889 0 1983 1 1969 18 -26 29 -3330 4545 -3334 4557 -3 7 48 33 128 64 160 64 493 224 643 310 316 181 606 401 861 656 305 305 503 581 689 960 229 468 362 984 405 1570 13 181 13 574 0 746 -97 1261 -611 2284 -1510 3003 -652 522 -1343 778 -2345 870 -426 39 -428 39 -2737 43 l-2268 4 0 -6401z m4110 3280 c896 -62 1351 -275 1489 -700 42 -126 54 -238 54 -505 0 -285 -15 -411 -65 -562 -142 -431 -549 -650 -1348 -723 -63 -6 -323 -14 -577 -17 l-463 -6 0 1262 0 1261 383 0 c210 0 447 -5 527 -10z"/>
    </g>
    </svg>